<?xml version="1.0" encoding="UTF-8" standalone="no"?>
<!-- Created with Inkscape (http://www.inkscape.org/) -->

<svg
   xmlns:dc="http://purl.org/dc/elements/1.1/"
   xmlns:cc="http://creativecommons.org/ns#"
   xmlns:rdf="http://www.w3.org/1999/02/22-rdf-syntax-ns#"
   xmlns:svg="http://www.w3.org/2000/svg"
   xmlns="http://www.w3.org/2000/svg"
   xmlns:xlink="http://www.w3.org/1999/xlink"
   xmlns:sodipodi="http://sodipodi.sourceforge.net/DTD/sodipodi-0.dtd"
   xmlns:inkscape="http://www.inkscape.org/namespaces/inkscape"
   width="100"
   height="100"
   id="svg2"
   version="1.1"
   inkscape:version="0.91 r13725"
   sodipodi:docname="export.svg"
   inkscape:export-filename="/1.works/www/ptg/img/action/export.png"
   inkscape:export-xdpi="90"
   inkscape:export-ydpi="90">
  <defs
     id="defs4">
    <linearGradient
       inkscape:collect="always"
       id="linearGradient4579">
      <stop
         style="stop-color:#000000;stop-opacity:1;"
         offset="0"
         id="stop4581" />
      <stop
         style="stop-color:#4d4d4d;stop-opacity:1"
         offset="1"
         id="stop4583" />
    </linearGradient>
    <marker
       inkscape:stockid="Arrow2Lend"
       orient="auto"
       refY="0.0"
       refX="0.0"
       id="Arrow2Lend"
       style="overflow:visible;">
      <path
         id="path3783"
         style="font-size:12.0;fill-rule:evenodd;stroke-width:0.62500000;stroke-linejoin:round;"
         d="M 8.7185878,4.0337352 L -2.2072895,0.016013256 L 8.7185884,-4.0017078 C 6.9730900,-1.6296469 6.9831476,1.6157441 8.7185878,4.0337352 z "
         transform="scale(1.1) rotate(180) translate(1,0)" />
    </marker>
    <linearGradient
       inkscape:collect="always"
       xlink:href="#linearGradient4579"
       id="linearGradient4585"
       x1="70"
       y1="72.679497"
       x2="2.6645353e-15"
       y2="2.6794968"
       gradientUnits="userSpaceOnUse" />
  </defs>
  <sodipodi:namedview
     id="base"
     pagecolor="#ffffff"
     bordercolor="#666666"
     borderopacity="1.0"
     inkscape:pageopacity="0.0"
     inkscape:pageshadow="2"
     inkscape:zoom="4.6073678"
     inkscape:cx="32.79622"
     inkscape:cy="49.315443"
     inkscape:document-units="px"
     inkscape:current-layer="layer1"
     showgrid="true"
     inkscape:window-width="1319"
     inkscape:window-height="744"
     inkscape:window-x="1127"
     inkscape:window-y="1176"
     inkscape:window-maximized="1"
     inkscape:snap-grids="true"
     inkscape:snap-page="true">
    <inkscape:grid
       type="xygrid"
       id="grid3860"
       empspacing="5"
       visible="true"
       enabled="true"
       snapvisiblegridlinesonly="true" />
  </sodipodi:namedview>
  <metadata
     id="metadata7">
    <rdf:RDF>
      <cc:Work
         rdf:about="">
        <dc:format>image/svg+xml</dc:format>
        <dc:type
           rdf:resource="http://purl.org/dc/dcmitype/StillImage" />
        <dc:title />
      </cc:Work>
    </rdf:RDF>
  </metadata>
  <g
     inkscape:label="Layer 1"
     inkscape:groupmode="layer"
     id="layer1"
     transform="translate(0,-952.36218)">
    <path
       style="color:#000000;font-style:normal;font-variant:normal;font-weight:normal;font-stretch:normal;font-size:medium;line-height:normal;font-family:Sans;-inkscape-font-specification:Sans;text-indent:0;text-align:start;text-decoration:none;text-decoration-line:none;text-decoration-style:solid;text-decoration-color:#000000;letter-spacing:normal;word-spacing:normal;text-transform:none;direction:ltr;block-progression:tb;writing-mode:lr-tb;baseline-shift:baseline;text-anchor:start;white-space:normal;clip-rule:nonzero;display:inline;overflow:visible;visibility:visible;opacity:1;isolation:auto;mix-blend-mode:normal;color-interpolation:sRGB;color-interpolation-filters:linearRGB;solid-color:#000000;solid-opacity:1;fill:#ffffff;fill-opacity:1;fill-rule:nonzero;stroke:none;stroke-width:8;stroke-linecap:butt;stroke-linejoin:miter;stroke-miterlimit:4;stroke-dasharray:none;stroke-dashoffset:0;stroke-opacity:1;marker:none;color-rendering:auto;image-rendering:auto;shape-rendering:auto;text-rendering:auto;enable-background:accumulate"
       d="m 39.866206,1019.6926 c 2.545407,2.1524 5.948443,2.0072 8.298828,-0.3594 l 17.771484,-17.7715 8.154297,8.1543 c 1.392556,1.3926 3.039795,2.2047 5.064453,2.2051 1.012329,2e-4 2.232195,-0.232 3.359375,-1.1348 1.12718,-0.9028 1.840765,-2.5435 1.845703,-3.8828 l 0,-0.01 0.05078,-47.12112 0,-0.002 c -0.0016,-2.65149 -1.201517,-3.89084 -2.359375,-5.04882 -1.157858,-1.15799 -2.398381,-2.35849 -5.050782,-2.35938 l -0.002,0 5e-5,0.006 -47.121094,0.0488 -0.0039,0 c -1.327959,0.005 -2.946795,0.69785 -3.855468,1.80664 -0.908674,1.10879 -1.161424,2.32891 -1.171876,3.34375 -0.0209,2.02968 0.788853,3.68411 2.171876,5.07812 l 0.0059,0.004 8.222656,8.22266 -17.78125,17.7832 -0.002,0 c -2.502019,2.50253 -2.498616,6.15903 0.002,8.66013 l 22.029297,22.02932 -0.138672,-0.1484 c 0.09277,0.1027 0.212698,0.22 0.335938,0.3359 l -0.002,0 0.0039,0 c 0.03373,0.032 0.05555,0.059 0.0918,0.092"
       id="path3784"
       inkscape:connector-curvature="0"
       sodipodi:nodetypes="ccccssccccscccccsscccccccccccc" />
    <path
       style="color:#000000;font-style:normal;font-variant:normal;font-weight:normal;font-stretch:normal;font-size:medium;line-height:normal;font-family:sans-serif;text-indent:0;text-align:start;text-decoration:none;text-decoration-line:none;text-decoration-style:solid;text-decoration-color:#000000;letter-spacing:normal;word-spacing:normal;text-transform:none;direction:ltr;block-progression:tb;writing-mode:lr-tb;baseline-shift:baseline;text-anchor:start;white-space:normal;clip-rule:nonzero;display:inline;overflow:visible;visibility:visible;opacity:1;isolation:auto;mix-blend-mode:normal;color-interpolation:sRGB;color-interpolation-filters:linearRGB;solid-color:#000000;solid-opacity:1;fill:#ffffff;fill-opacity:1;fill-rule:nonzero;stroke:none;stroke-width:12;stroke-linecap:round;stroke-linejoin:miter;stroke-miterlimit:4;stroke-dasharray:none;stroke-dashoffset:0;stroke-opacity:1;color-rendering:auto;image-rendering:auto;shape-rendering:auto;text-rendering:auto;enable-background:accumulate"
       d="M 5.9101562,1020.082 A 6.0006,6.0006 0 0 0 0,1026.166 l 0,26.1953 100,0 0,-26.1953 a 6.0006,6.0006 0 1 0 -12,0 l 0,14.1953 -76,0 0,-14.1953 a 6.0006,6.0006 0 0 0 -6.0898438,-6.084 z"
       id="path19"
       inkscape:connector-curvature="0" />
  </g>
</svg>
