<?xml version="1.0" encoding="UTF-8" standalone="no"?>
<!-- Created with Inkscape (http://www.inkscape.org/) -->

<svg
   xmlns:dc="http://purl.org/dc/elements/1.1/"
   xmlns:cc="http://creativecommons.org/ns#"
   xmlns:rdf="http://www.w3.org/1999/02/22-rdf-syntax-ns#"
   xmlns:svg="http://www.w3.org/2000/svg"
   xmlns="http://www.w3.org/2000/svg"
   xmlns:xlink="http://www.w3.org/1999/xlink"
   xmlns:sodipodi="http://sodipodi.sourceforge.net/DTD/sodipodi-0.dtd"
   xmlns:inkscape="http://www.inkscape.org/namespaces/inkscape"
   width="100"
   height="100"
   id="svg2"
   version="1.1"
   inkscape:version="0.91 r13725"
   sodipodi:docname="save.svg"
   inkscape:export-filename="/1.works/www/ptg/img/action/export.png"
   inkscape:export-xdpi="90"
   inkscape:export-ydpi="90">
  <defs
     id="defs4">
    <linearGradient
       inkscape:collect="always"
       id="linearGradient4579">
      <stop
         style="stop-color:#000000;stop-opacity:1;"
         offset="0"
         id="stop4581" />
      <stop
         style="stop-color:#4d4d4d;stop-opacity:1"
         offset="1"
         id="stop4583" />
    </linearGradient>
    <marker
       inkscape:stockid="Arrow2Lend"
       orient="auto"
       refY="0.0"
       refX="0.0"
       id="Arrow2Lend"
       style="overflow:visible;">
      <path
         id="path3783"
         style="font-size:12.0;fill-rule:evenodd;stroke-width:0.62500000;stroke-linejoin:round;"
         d="M 8.7185878,4.0337352 L -2.2072895,0.016013256 L 8.7185884,-4.0017078 C 6.9730900,-1.6296469 6.9831476,1.6157441 8.7185878,4.0337352 z "
         transform="scale(1.1) rotate(180) translate(1,0)" />
    </marker>
    <linearGradient
       inkscape:collect="always"
       xlink:href="#linearGradient4579"
       id="linearGradient4585"
       x1="70"
       y1="72.679497"
       x2="2.6645353e-15"
       y2="2.6794968"
       gradientUnits="userSpaceOnUse" />
    <marker
       style="overflow:visible;"
       id="Arrow2Lend-3"
       refX="0.0"
       refY="0.0"
       orient="auto"
       inkscape:stockid="Arrow2Lend">
      <path
         transform="scale(1.1) rotate(180) translate(1,0)"
         d="M 8.7185878,4.0337352 L -2.2072895,0.016013256 L 8.7185884,-4.0017078 C 6.9730900,-1.6296469 6.9831476,1.6157441 8.7185878,4.0337352 z "
         style="font-size:12.0;fill-rule:evenodd;stroke-width:0.62500000;stroke-linejoin:round;"
         id="path3783-5" />
    </marker>
    <linearGradient
       gradientUnits="userSpaceOnUse"
       y2="2.6794968"
       x2="2.6645353e-15"
       y1="72.679497"
       x1="70"
       id="linearGradient4164"
       xlink:href="#linearGradient4579"
       inkscape:collect="always" />
  </defs>
  <sodipodi:namedview
     id="base"
     pagecolor="#ffffff"
     bordercolor="#666666"
     borderopacity="1.0"
     inkscape:pageopacity="0.0"
     inkscape:pageshadow="2"
     inkscape:zoom="13.031604"
     inkscape:cx="66.634569"
     inkscape:cy="57.326352"
     inkscape:document-units="px"
     inkscape:current-layer="layer1"
     showgrid="true"
     inkscape:window-width="1873"
     inkscape:window-height="1056"
     inkscape:window-x="47"
     inkscape:window-y="24"
     inkscape:window-maximized="1"
     inkscape:snap-grids="true"
     inkscape:snap-page="true">
    <inkscape:grid
       type="xygrid"
       id="grid3860"
       empspacing="5"
       visible="true"
       enabled="true"
       snapvisiblegridlinesonly="true" />
  </sodipodi:namedview>
  <metadata
     id="metadata7">
    <rdf:RDF>
      <cc:Work
         rdf:about="">
        <dc:format>image/svg+xml</dc:format>
        <dc:type
           rdf:resource="http://purl.org/dc/dcmitype/StillImage" />
        <dc:title />
      </cc:Work>
    </rdf:RDF>
  </metadata>
  <g
     inkscape:label="Layer 1"
     inkscape:groupmode="layer"
     id="layer1"
     transform="translate(0,-952.36218)">
    <g
       id="layer1-1"
       inkscape:label="Layer 1"
       transform="translate(0,-2.6171874e-6)">
      <rect
         y="952.36218"
         x="0"
         height="100"
         width="100"
         id="rect4150"
         style="opacity:1;fill:#acacac;fill-opacity:1;stroke:none;stroke-width:15;stroke-linecap:round;stroke-linejoin:round;stroke-miterlimit:4;stroke-dasharray:none;stroke-dashoffset:0;stroke-opacity:1" />
      <g
         style="fill:#ffffff"
         transform="matrix(0.49999997,0,0,0.49999997,35.000001,548.68111)"
         id="g4172" />
    </g>
    <path
       style="color:#000000;font-style:normal;font-variant:normal;font-weight:normal;font-stretch:normal;font-size:medium;line-height:normal;font-family:Sans;-inkscape-font-specification:Sans;text-indent:0;text-align:start;text-decoration:none;text-decoration-line:none;text-decoration-style:solid;text-decoration-color:#000000;letter-spacing:normal;word-spacing:normal;text-transform:none;direction:ltr;block-progression:tb;writing-mode:lr-tb;baseline-shift:baseline;text-anchor:start;white-space:normal;clip-rule:nonzero;display:inline;overflow:visible;visibility:visible;opacity:1;isolation:auto;mix-blend-mode:normal;color-interpolation:sRGB;color-interpolation-filters:linearRGB;solid-color:#000000;solid-opacity:1;fill:#ffffff;fill-opacity:1;fill-rule:nonzero;stroke:none;stroke-width:8;stroke-linecap:butt;stroke-linejoin:miter;stroke-miterlimit:4;stroke-dasharray:none;stroke-dashoffset:0;stroke-opacity:1;marker:none;color-rendering:auto;image-rendering:auto;shape-rendering:auto;text-rendering:auto;enable-background:accumulate"
       d="m 44.054663,977.36217 0.07715,0.003 c -0.05273,-0.003 -0.116212,-0.002 -0.180664,0 l -9.57e-4,8.6e-4 c -0.01791,3.7e-4 -0.03015,-8.6e-4 -0.04883,0 l -0.04394,0.003 c -1.266077,0.10591 -2.144073,1.06174 -2.139648,2.33299 l 0,8.18263 -12.967774,0 c -2.070982,2.1e-4 -3.749793,1.67902 -3.75,3.75 l 0,31.97755 c 2.07e-4,2.071 1.679018,3.7498 3.75,3.75 l 42.5,0 c 2.070982,-2e-4 3.749793,-1.679 3.75,-3.75 l 0,-31.97756 c -2.07e-4,-2.07098 -1.679018,-3.74979 -3.75,-3.75 l -2.375,0 c -5.071114,-0.0717 -5.0712,3.57171 0,3.5 l 2.624999,0 0,32.47766 -42.999998,0 0,-32.47766 13.217773,0 0,8.89656 -4.395508,0 c -0.750696,0 -1.413212,0.2249 -1.958985,0.7705 -0.27286,0.2727 -0.539113,0.6638 -0.599609,1.2109 -0.06048,0.5471 0.189171,1.1817 0.548828,1.544 l 0.0078,0 12.685547,12.7138 9.57e-4,0 c 0.714601,0.7146 1.371936,0.7246 1.996094,0.7246 0.624156,0 1.281954,-0.011 1.99707,-0.7255 l -0.0019,0 12.686523,-12.7129 9.57e-4,0 c 0.35655,-0.3593 0.606663,-0.9817 0.552734,-1.5254 -0.05393,-0.5437 -0.315241,-0.9415 -0.585937,-1.2178 -0.541383,-0.5526 -1.205669,-0.7802 -1.954102,-0.7832 l -0.0019,9e-4 -4.432616,0 0,-20.58505 0,-8.7e-4 c -1.47e-4,-1.34875 -0.98696,-2.33288 -2.334962,-2.333 l -11.874023,0 z"
       id="path3784"
       inkscape:connector-curvature="0"
       sodipodi:nodetypes="ccccccccccccccccccccccccsccccccsccccsscccccccc" />
  </g>
</svg>
