<?xml version="1.0" encoding="UTF-8" standalone="no"?>
<!-- Created with Inkscape (http://www.inkscape.org/) -->

<svg
   xmlns:dc="http://purl.org/dc/elements/1.1/"
   xmlns:cc="http://creativecommons.org/ns#"
   xmlns:rdf="http://www.w3.org/1999/02/22-rdf-syntax-ns#"
   xmlns:svg="http://www.w3.org/2000/svg"
   xmlns="http://www.w3.org/2000/svg"
   xmlns:xlink="http://www.w3.org/1999/xlink"
   xmlns:sodipodi="http://sodipodi.sourceforge.net/DTD/sodipodi-0.dtd"
   xmlns:inkscape="http://www.inkscape.org/namespaces/inkscape"
   width="100"
   height="100"
   id="svg2"
   version="1.1"
   inkscape:version="0.92.2 (unknown)"
   sodipodi:docname="header_pos_online.svg"
   inkscape:export-filename="/1.works/www/ptg/img/action/product.png"
   inkscape:export-xdpi="89.935066"
   inkscape:export-ydpi="89.935066">
  <defs
     id="defs4">
    <linearGradient
       inkscape:collect="always"
       id="linearGradient1893">
      <stop
         style="stop-color:#808080;stop-opacity:1"
         offset="0"
         id="stop1889" />
      <stop
         style="stop-color:#b3b3b3;stop-opacity:0;"
         offset="1"
         id="stop1891" />
    </linearGradient>
    <linearGradient
       id="linearGradient3719"
       inkscape:collect="always">
      <stop
         id="stop3721"
         offset="0"
         style="stop-color:#ffffff;stop-opacity:1" />
      <stop
         id="stop3723"
         offset="1"
         style="stop-color:#ffffff;stop-opacity:0" />
    </linearGradient>
    <linearGradient
       id="linearGradient3656"
       inkscape:collect="always">
      <stop
         id="stop3659"
         offset="0"
         style="stop-color:#283345;stop-opacity:1" />
      <stop
         id="stop3661"
         offset="1"
         style="stop-color:#e7e8ea;stop-opacity:1" />
    </linearGradient>
    <linearGradient
       inkscape:collect="always"
       id="linearGradient2878">
      <stop
         style="stop-color:#000000;stop-opacity:1"
         offset="0"
         id="stop2880" />
      <stop
         style="stop-color:#fffefa;stop-opacity:1"
         offset="1"
         id="stop2882" />
    </linearGradient>
    <linearGradient
       id="linearGradient3622"
       inkscape:collect="always">
      <stop
         id="stop3624"
         offset="0"
         style="stop-color:#000000;stop-opacity:1" />
      <stop
         id="stop3626"
         offset="1"
         style="stop-color:#f6f6f8;stop-opacity:1" />
    </linearGradient>
    <inkscape:perspective
       id="perspective10"
       inkscape:persp3d-origin="0.5 : 0.33333333 : 1"
       inkscape:vp_z="1 : 0.5 : 1"
       inkscape:vp_y="0 : 1000 : 0"
       inkscape:vp_x="0 : 0.5 : 1"
       sodipodi:type="inkscape:persp3d" />
    <linearGradient
       gradientTransform="translate(-146.03125,-129.53125)"
       gradientUnits="userSpaceOnUse"
       y2="396.02948"
       x2="531.01703"
       y1="414.90201"
       x1="60.733967"
       id="linearGradient3628"
       xlink:href="#linearGradient3622"
       inkscape:collect="always" />
    <inkscape:perspective
       sodipodi:type="inkscape:persp3d"
       inkscape:vp_x="0 : 0.5 : 1"
       inkscape:vp_y="0 : 1000 : 0"
       inkscape:vp_z="1 : 0.5 : 1"
       inkscape:persp3d-origin="0.5 : 0.33333333 : 1"
       id="perspective2868" />
    <linearGradient
       gradientTransform="translate(-146.03125,-129.53125)"
       y2="604.20496"
       x2="660.20612"
       y1="223.69696"
       x1="535.76038"
       gradientUnits="userSpaceOnUse"
       id="linearGradient2876"
       xlink:href="#linearGradient2878"
       inkscape:collect="always" />
    <linearGradient
       gradientTransform="translate(-146.03125,-129.53125)"
       y2="266.62115"
       x2="527.37213"
       y1="431.38748"
       x1="274.08319"
       gradientUnits="userSpaceOnUse"
       id="linearGradient3689"
       xlink:href="#linearGradient3656"
       inkscape:collect="always" />
    <linearGradient
       gradientTransform="translate(-146.03125,-129.53125)"
       gradientUnits="userSpaceOnUse"
       y2="453.00839"
       x2="518.2251"
       y1="523.54761"
       x1="561.6665"
       id="linearGradient3725"
       xlink:href="#linearGradient3719"
       inkscape:collect="always" />
    <inkscape:perspective
       id="perspective10-5"
       inkscape:persp3d-origin="0.5 : 0.33333333 : 1"
       inkscape:vp_z="1 : 0.5 : 1"
       inkscape:vp_y="0 : 1000 : 0"
       inkscape:vp_x="0 : 0.5 : 1"
       sodipodi:type="inkscape:persp3d" />
    <inkscape:perspective
       sodipodi:type="inkscape:persp3d"
       inkscape:vp_x="0 : 0.5 : 1"
       inkscape:vp_y="0 : 1000 : 0"
       inkscape:vp_z="1 : 0.5 : 1"
       inkscape:persp3d-origin="0.5 : 0.33333333 : 1"
       id="perspective3639" />
    <linearGradient
       id="linearGradient2996"
       inkscape:collect="always">
      <stop
         id="stop2998"
         offset="0"
         style="stop-color:#000000;stop-opacity:1" />
      <stop
         id="stop3000"
         offset="1"
         style="stop-color:#ff0000;stop-opacity:1" />
    </linearGradient>
    <linearGradient
       gradientUnits="userSpaceOnUse"
       y2="521.75031"
       x2="-795.40149"
       y1="585.94769"
       x1="-859.59888"
       id="linearGradient3002"
       xlink:href="#linearGradient2996"
       inkscape:collect="always" />
    <linearGradient
       inkscape:collect="always"
       id="linearGradient3860">
      <stop
         style="stop-color:#00c9ff;stop-opacity:1;"
         offset="0"
         id="stop3862" />
      <stop
         style="stop-color:#204a87;stop-opacity:1"
         offset="1"
         id="stop3864" />
    </linearGradient>
    <linearGradient
       gradientTransform="translate(0,22)"
       y2="-37.946426"
       x2="292.03571"
       y1="103.21429"
       x1="190.03571"
       gradientUnits="userSpaceOnUse"
       id="linearGradient3866"
       xlink:href="#linearGradient3860"
       inkscape:collect="always" />
    <inkscape:perspective
       id="perspective18"
       inkscape:persp3d-origin="372.04724 : 350.78739 : 1"
       inkscape:vp_z="744.09448 : 526.18109 : 1"
       inkscape:vp_y="0 : 1000 : 0"
       inkscape:vp_x="0 : 526.18109 : 1"
       sodipodi:type="inkscape:persp3d" />
    <linearGradient
       id="linearGradient3025"
       inkscape:collect="always">
      <stop
         id="stop3027"
         offset="0"
         style="stop-color:#000000;stop-opacity:1;" />
      <stop
         id="stop3029"
         offset="1"
         style="stop-color:#808080;stop-opacity:1" />
    </linearGradient>
    <linearGradient
       gradientTransform="translate(0,-1.414999)"
       gradientUnits="userSpaceOnUse"
       y2="1052.1047"
       x2="41.531101"
       y1="1029.2328"
       x1="35.402569"
       id="linearGradient3031"
       xlink:href="#linearGradient3025"
       inkscape:collect="always" />
    <linearGradient
       y2="1052.1047"
       x2="41.531101"
       y1="1029.2328"
       x1="35.402569"
       gradientTransform="matrix(-1,0,0,-1,100,2006.1394)"
       gradientUnits="userSpaceOnUse"
       id="linearGradient3035"
       xlink:href="#linearGradient3025"
       inkscape:collect="always" />
    <linearGradient
       id="linearGradient4211"
       inkscape:collect="always">
      <stop
         id="stop4213"
         offset="0"
         style="stop-color:#00007b;stop-opacity:1" />
      <stop
         id="stop4215"
         offset="1"
         style="stop-color:#b3b3b3;stop-opacity:1" />
    </linearGradient>
    <linearGradient
       id="linearGradient4021">
      <stop
         id="stop4023"
         offset="0"
         style="stop-color:#151507;stop-opacity:1" />
      <stop
         style="stop-color:#42380e;stop-opacity:1"
         offset="0.43647048"
         id="stop4025" />
      <stop
         style="stop-color:#a5812e;stop-opacity:1"
         offset="0.57441735"
         id="stop4027" />
      <stop
         style="stop-color:#ecb24b;stop-opacity:1"
         offset="0.60881901"
         id="stop4029" />
      <stop
         style="stop-color:#d8b74f;stop-opacity:1"
         offset="0.66278571"
         id="stop4031" />
      <stop
         id="stop4033"
         offset="1"
         style="stop-color:#483f1a;stop-opacity:1" />
    </linearGradient>
    <linearGradient
       id="linearGradient3999">
      <stop
         style="stop-color:#151507;stop-opacity:1"
         offset="0"
         id="stop4001" />
      <stop
         id="stop4007"
         offset="0.31585628"
         style="stop-color:#42380e;stop-opacity:1" />
      <stop
         id="stop4009"
         offset="0.468034"
         style="stop-color:#a5812e;stop-opacity:1" />
      <stop
         id="stop4011"
         offset="0.58726585"
         style="stop-color:#ecb24b;stop-opacity:1" />
      <stop
         id="stop4013"
         offset="0.62686378"
         style="stop-color:#d8b74f;stop-opacity:1" />
      <stop
         style="stop-color:#483f1a;stop-opacity:1"
         offset="1"
         id="stop4017" />
    </linearGradient>
    <linearGradient
       id="linearGradient3977">
      <stop
         id="stop3979"
         offset="0"
         style="stop-color:#151507;stop-opacity:1" />
      <stop
         style="stop-color:#ad6305;stop-opacity:0.98039216;"
         offset="0.01958949"
         id="stop3995" />
      <stop
         style="stop-color:#ad6305;stop-opacity:0.96078431;"
         offset="0.03917899"
         id="stop3993" />
      <stop
         style="stop-color:#ad6305;stop-opacity:0.92156863;"
         offset="0.07835797"
         id="stop3991" />
      <stop
         style="stop-color:#ad6305;stop-opacity:0.84313725;"
         offset="0.31343189"
         id="stop3989" />
      <stop
         style="stop-color:#ad6305;stop-opacity:0.68627451;"
         offset="0.31343189"
         id="stop3987" />
      <stop
         style="stop-color:#c7a43d;stop-opacity:1"
         offset="0.62686378"
         id="stop3981" />
      <stop
         id="stop3985"
         offset="0.95094651"
         style="stop-color:#ad6305;stop-opacity:0.04705882;" />
      <stop
         id="stop3983"
         offset="1"
         style="stop-color:#483f1a;stop-opacity:1" />
    </linearGradient>
    <linearGradient
       gradientTransform="translate(-167.35792,-197.33247)"
       gradientUnits="userSpaceOnUse"
       y2="30.527185"
       x2="-724.28394"
       y1="-140.05316"
       x1="-724.28394"
       id="linearGradient4217"
       xlink:href="#linearGradient4211"
       inkscape:collect="always" />
    <linearGradient
       gradientTransform="translate(1369.3971,414.05679)"
       gradientUnits="userSpaceOnUse"
       y2="-260.10345"
       x2="-836.78961"
       y1="-208.89691"
       x1="-1250.1886"
       id="linearGradient4248"
       xlink:href="#linearGradient3719"
       inkscape:collect="always" />
    <linearGradient
       inkscape:collect="always"
       xlink:href="#linearGradient1893"
       id="linearGradient1895"
       x1="80.163551"
       y1="97.053558"
       x2="42.063004"
       y2="58.953011"
       gradientUnits="userSpaceOnUse" />
  </defs>
  <sodipodi:namedview
     id="base"
     pagecolor="#000000"
     bordercolor="#666666"
     borderopacity="1.0"
     inkscape:pageopacity="1"
     inkscape:pageshadow="2"
     inkscape:zoom="9.8423782"
     inkscape:cx="63.471753"
     inkscape:cy="16.433469"
     inkscape:document-units="px"
     inkscape:current-layer="layer1"
     showgrid="true"
     inkscape:window-width="1920"
     inkscape:window-height="1056"
     inkscape:window-x="0"
     inkscape:window-y="24"
     inkscape:window-maximized="1"
     inkscape:snap-bbox="true"
     inkscape:bbox-nodes="false"
     inkscape:snap-global="false"
     inkscape:object-nodes="true">
    <inkscape:grid
       type="xygrid"
       id="grid3337"
       spacingx="50"
       spacingy="50"
       empspacing="2" />
  </sodipodi:namedview>
  <metadata
     id="metadata7">
    <rdf:RDF>
      <cc:Work
         rdf:about="">
        <dc:format>image/svg+xml</dc:format>
        <dc:type
           rdf:resource="http://purl.org/dc/dcmitype/StillImage" />
        <dc:title />
      </cc:Work>
    </rdf:RDF>
  </metadata>
  <g
     inkscape:label="Layer 1"
     inkscape:groupmode="layer"
     id="layer1"
     transform="translate(0,-952.36218)"
     style="display:inline;opacity:1">
    <path
       style="fill:#ffffff;fill-opacity:1;stroke:none;stroke-width:0.74978888"
       d="m 4.407234,992.23011 c -6.1817997,0.37292 -5.7124683,11.42469 0.4693314,11.05179 h 3.2540325 l 7.5405911,36.8007 c 1.348261,6.5945 4.468947,12.2796 10.012405,12.2796 H 74.43149 c 5.543455,0 8.632855,-5.6851 9.981115,-12.2796 l 7.509304,-36.8007 h 3.441764 c 2.560588,0 4.636347,-2.474 4.636347,-5.5259 0,-3.05186 -2.075759,-5.52589 -4.636347,-5.52589 H 83.473942 c 0.743062,4.04886 -0.670278,8.32089 -3.817228,10.55289 -3.962498,2.8105 -8.845794,1.0644 -11.013646,-3.83741 h -0.03129 l -0.09387,-0.15349 c -0.0039,-0.01 0.0039,-0.0285 0,-0.0384 l -3.066299,-6.5236 H 34.569596 l -3.066298,6.5236 v 0.0384 l -0.09387,0.15349 h -0.03129 c -2.167852,4.90181 -7.051148,6.64791 -11.013646,3.83741 -3.14695,-2.232 -4.560289,-6.50403 -3.817228,-10.55289 H 4.8765584 c -0.1563434,-0.009 -0.312988,-0.009 -0.4693314,0 z m 26.59545,19.18709 c 1.68334,-0.021 3.052428,1.6577 3.035011,3.7222 v 23.7152 c 0.05744,4.9818 -6.064883,4.9818 -6.007443,0 v -23.7152 c -0.01717,-2.0345 1.313582,-3.7009 2.972432,-3.7222 z m 12.640661,0 c 1.68334,-0.021 3.052428,1.6577 3.035011,3.7222 v 23.7152 c 0.05744,4.9818 -6.064883,4.9818 -6.007443,0 v -23.7152 c -0.01716,-2.0345 1.313582,-3.7009 2.972432,-3.7222 z m 12.640661,0 c 1.68334,-0.021 3.052428,1.6577 3.035011,3.7222 v 23.7152 c 0.05744,4.9818 -6.064883,4.9818 -6.007443,0 v -23.7152 c -0.01716,-2.0345 1.313582,-3.7009 2.972432,-3.7222 z m 12.640661,0 c 1.68334,-0.021 3.052427,1.6577 3.03501,3.7222 v 23.7152 c 0.05744,4.9818 -6.064883,4.9818 -6.007443,0 v -23.7152 c -0.01717,-2.0345 1.313583,-3.7009 2.972433,-3.7222 z"
       id="rect2996"
       inkscape:connector-curvature="0"
       sodipodi:nodetypes="ccccssccsssccccccccccccccccccccccccccccccccccccccccc" />
    <path
       inkscape:connector-curvature="0"
       id="path3774"
       d="m 58.232424,952.36676 a 4.5005211,4.4978177 0 0 0 -4.248114,6.46497 l 17.482699,37.13646 a 4.5005211,4.4978177 0 1 0 8.142706,-3.82784 L 62.12897,955.00389 a 4.5005211,4.4978177 0 0 0 -3.896546,-2.63713 z"
       style="color:#000000;font-style:normal;font-variant:normal;font-weight:normal;font-stretch:normal;font-size:medium;line-height:normal;font-family:sans-serif;text-indent:0;text-align:start;text-decoration:none;text-decoration-line:none;text-decoration-style:solid;text-decoration-color:#000000;letter-spacing:normal;word-spacing:normal;text-transform:none;writing-mode:lr-tb;direction:ltr;baseline-shift:baseline;text-anchor:start;white-space:normal;clip-rule:nonzero;display:inline;overflow:visible;visibility:visible;opacity:1;isolation:auto;mix-blend-mode:normal;color-interpolation:sRGB;color-interpolation-filters:linearRGB;solid-color:#000000;solid-opacity:1;fill:#ffffff;fill-opacity:1;fill-rule:nonzero;stroke:none;stroke-width:6.7480998;stroke-linecap:round;stroke-linejoin:miter;stroke-miterlimit:4;stroke-dasharray:none;stroke-dashoffset:0;stroke-opacity:1;color-rendering:auto;image-rendering:auto;shape-rendering:auto;text-rendering:auto;enable-background:accumulate" />
    <path
       inkscape:connector-curvature="0"
       id="path3776"
       d="m 42.09545,952.36481 a 4.5005211,4.4978177 0 0 0 -4.211004,2.63908 l -17.480744,37.13646 a 4.5005211,4.4978177 0 1 0 8.142706,3.82784 l 17.482698,-37.13646 a 4.5005211,4.4978177 0 0 0 -3.933656,-6.46692 z"
       style="color:#000000;font-style:normal;font-variant:normal;font-weight:normal;font-stretch:normal;font-size:medium;line-height:normal;font-family:sans-serif;text-indent:0;text-align:start;text-decoration:none;text-decoration-line:none;text-decoration-style:solid;text-decoration-color:#000000;letter-spacing:normal;word-spacing:normal;text-transform:none;writing-mode:lr-tb;direction:ltr;baseline-shift:baseline;text-anchor:start;white-space:normal;clip-rule:nonzero;display:inline;overflow:visible;visibility:visible;opacity:1;isolation:auto;mix-blend-mode:normal;color-interpolation:sRGB;color-interpolation-filters:linearRGB;solid-color:#000000;solid-opacity:1;fill:#ffffff;fill-opacity:1;fill-rule:nonzero;stroke:none;stroke-width:6.7480998;stroke-linecap:round;stroke-linejoin:miter;stroke-miterlimit:4;stroke-dasharray:none;stroke-dashoffset:0;stroke-opacity:1;color-rendering:auto;image-rendering:auto;shape-rendering:auto;text-rendering:auto;enable-background:accumulate" />
    <g
       id="g4184"
       transform="matrix(0.27345792,0,0,0.27345792,668.24415,594.26899)" />
    <g
       id="g4189"
       transform="matrix(0.16238277,0.00360585,-0.00294416,0.13258485,636.00247,596.68656)" />
    <g
       transform="matrix(0.20786517,0.02630757,-0.02034361,0.17920179,677.99829,592.85893)"
       id="g4199" />
    <g
       id="g4651"
       transform="translate(-2.291688,-2)" />
    <path
       style="fill:url(#linearGradient1895);fill-opacity:1;stroke:none;stroke-width:0.74978888"
       d="M 92.703125,39.867188 71.591797,60.978516 a 3.0040218,3.6842796 0 0 1 0.367187,1.798828 v 23.714844 a 3.0040218,3.6842796 0 1 1 -6.005859,0 v -19.875 l -6.634766,6.634765 v 13.240235 a 3.0040218,3.6842796 0 1 1 -6.005859,0 v -7.234376 l -6.634766,6.634766 v 0.59961 A 3.0040218,3.6842796 0 0 1 42.59375,89.976562 L 32.570312,100 h 41.861329 c 5.543455,0 8.632208,-5.684797 9.980468,-12.279297 l 7.509766,-36.800781 h 3.441406 a 4.6367478,5.526367 0 0 0 0,-11.052734 z M 66.382812,92.726562 v 4.166016 c 0,0.102222 0.0076,0.18724 0.02539,0.253906 0.01778,0.06667 0.04789,0.120157 0.08789,0.160157 0.04,0.04 0.09154,0.07153 0.158203,0.09375 0.06667,0.01778 0.150269,0.03354 0.248047,0.04687 l -0.08789,0.519531 c -0.382222,-0.0089 -0.6525,-0.09054 -0.8125,-0.246094 -0.16,-0.155555 -0.240234,-0.397673 -0.240234,-0.726562 v -4.160157 z m 1.521485,0.267579 c 0.111111,0 0.205694,0.03772 0.28125,0.113281 0.08,0.07111 0.11914,0.168524 0.119141,0.292969 0,0.124444 -0.03914,0.223272 -0.119141,0.298828 -0.07556,0.07111 -0.170139,0.107422 -0.28125,0.107422 -0.111111,0 -0.20711,-0.03631 -0.287109,-0.107422 -0.07556,-0.07556 -0.113282,-0.174384 -0.113282,-0.298828 0,-0.124445 0.03773,-0.221858 0.113282,-0.292969 0.08,-0.07556 0.175998,-0.113281 0.287109,-0.113281 z m -9.066406,0.179687 c 0.297777,0 0.577621,0.05012 0.839843,0.152344 0.266667,0.102222 0.501172,0.256493 0.701172,0.460937 0.2,0.2 0.357101,0.449731 0.472656,0.751953 0.12,0.302223 0.179688,0.65132 0.179688,1.046876 0,0.395555 -0.05969,0.744652 -0.179688,1.046874 -0.115555,0.302223 -0.272656,0.555322 -0.472656,0.759766 -0.2,0.2 -0.434505,0.352856 -0.701172,0.455078 C 59.415512,97.949878 59.135668,98 58.837891,98 c -0.302223,0 -0.588264,-0.05012 -0.859375,-0.152344 -0.266667,-0.102222 -0.502587,-0.255078 -0.707032,-0.455078 -0.2,-0.204444 -0.360468,-0.457543 -0.480468,-0.759766 -0.115556,-0.302222 -0.173829,-0.651319 -0.173828,-1.046874 0,-0.395556 0.05827,-0.744653 0.173828,-1.046876 0.12,-0.302222 0.280468,-0.551953 0.480468,-0.751953 0.204445,-0.204444 0.440365,-0.358715 0.707032,-0.460937 0.271111,-0.102222 0.557152,-0.152344 0.859375,-0.152344 z m -0.01367,0.566406 c -0.235556,0 -0.447561,0.04392 -0.638672,0.132813 -0.186667,0.08444 -0.347136,0.207187 -0.480469,0.367187 -0.128889,0.16 -0.22967,0.354827 -0.300781,0.585938 -0.07111,0.226667 -0.105469,0.479766 -0.105469,0.759766 0,0.279999 0.03436,0.536467 0.105469,0.767578 0.07111,0.226666 0.171892,0.420078 0.300781,0.580078 0.133333,0.16 0.293802,0.284158 0.480469,0.373047 0.191111,0.08444 0.403116,0.126953 0.638672,0.126953 0.235555,0 0.448099,-0.04251 0.634765,-0.126953 0.186667,-0.08889 0.343768,-0.213047 0.472657,-0.373047 0.133333,-0.16 0.235529,-0.353412 0.30664,-0.580078 0.07111,-0.231111 0.107422,-0.487579 0.107422,-0.767578 0,-0.28 -0.03631,-0.533099 -0.107422,-0.759766 -0.07111,-0.231111 -0.173307,-0.425938 -0.30664,-0.585938 -0.128889,-0.16 -0.28599,-0.282743 -0.472657,-0.367187 -0.186666,-0.08889 -0.39921,-0.132813 -0.634765,-0.132813 z m 15.68164,0.607422 c 0.466667,0 0.823377,0.14612 1.072266,0.439453 0.248889,0.288889 0.375,0.730617 0.375,1.326172 v 0.107422 c 0,0.04 -0.0034,0.07773 -0.0078,0.113281 h -2.373046 c 0.02667,0.36 0.130277,0.633646 0.3125,0.820313 0.182222,0.186667 0.466849,0.279297 0.853515,0.279297 0.217778,0 0.400209,-0.01718 0.546875,-0.05273 0.151111,-0.04 0.264288,-0.07773 0.339844,-0.113281 l 0.08789,0.519531 c -0.07556,0.04 -0.20928,0.08251 -0.400391,0.126953 -0.186667,0.04444 -0.400625,0.06641 -0.640625,0.06641 -0.302222,0 -0.564887,-0.04392 -0.787109,-0.132813 -0.217778,-0.09333 -0.396841,-0.220859 -0.539063,-0.380859 -0.142222,-0.16 -0.249201,-0.348629 -0.320312,-0.566406 -0.06667,-0.222223 -0.09961,-0.464341 -0.09961,-0.726563 0,-0.306667 0.04392,-0.574114 0.132813,-0.800781 0.08889,-0.231111 0.206849,-0.421155 0.353515,-0.572266 0.146667,-0.151111 0.314749,-0.264288 0.50586,-0.339843 0.191111,-0.07556 0.38789,-0.113282 0.58789,-0.113282 z m -11.179687,0.01172 c 0.275555,0 0.505278,0.04109 0.6875,0.121094 0.182222,0.07555 0.326927,0.183949 0.433594,0.326172 0.111111,0.137777 0.187977,0.304444 0.232422,0.5 0.04444,0.195555 0.06641,0.410928 0.06641,0.646484 v 1.947266 h -0.619141 v -1.814453 c 0,-0.213334 -0.01576,-0.395764 -0.04687,-0.546876 -0.02667,-0.151111 -0.07396,-0.271901 -0.140625,-0.365234 -0.06667,-0.09333 -0.154514,-0.161172 -0.265625,-0.201172 -0.111111,-0.04444 -0.249618,-0.06641 -0.414062,-0.06641 -0.06667,0 -0.133967,0.0034 -0.205078,0.0078 -0.07111,0.0044 -0.140365,0.01064 -0.207032,0.01953 -0.06222,0.0044 -0.120495,0.01064 -0.173828,0.01953 -0.04889,0.0089 -0.0852,0.01509 -0.107422,0.01953 v 2.927735 h -0.61914 v -3.367188 c 0.142222,-0.03556 0.33085,-0.07328 0.566406,-0.113281 0.235555,-0.04 0.505833,-0.06055 0.8125,-0.06055 z m 7.34375,0 c 0.275555,0 0.505278,0.04109 0.6875,0.121094 0.182222,0.07555 0.326927,0.183949 0.433594,0.326172 0.111111,0.137777 0.187977,0.304444 0.232422,0.5 0.04444,0.195555 0.06641,0.410928 0.06641,0.646484 v 1.947266 h -0.619141 v -1.814453 c 0,-0.213334 -0.01576,-0.395764 -0.04687,-0.546876 -0.02667,-0.151111 -0.07396,-0.271901 -0.140625,-0.365234 -0.06667,-0.09333 -0.154514,-0.161172 -0.265625,-0.201172 -0.111111,-0.04444 -0.249618,-0.06641 -0.414062,-0.06641 -0.06667,0 -0.133967,0.0034 -0.205078,0.0078 -0.07111,0.0044 -0.140365,0.01064 -0.207032,0.01953 -0.06222,0.0044 -0.120495,0.01064 -0.173828,0.01953 -0.04889,0.0089 -0.0852,0.01509 -0.107422,0.01953 v 2.927735 h -0.61914 v -3.367188 c 0.142222,-0.03556 0.33085,-0.07328 0.566406,-0.113281 0.235555,-0.04 0.505833,-0.06055 0.8125,-0.06055 z m -3.072266,0.07422 h 0.621094 v 3.466797 h -0.621094 z m 6.900391,0.439453 c -0.142222,0 -0.267795,0.03011 -0.378906,0.08789 -0.106667,0.05333 -0.197882,0.124001 -0.273438,0.21289 -0.07555,0.08889 -0.135243,0.191085 -0.179687,0.306641 -0.04,0.115555 -0.06674,0.233515 -0.08008,0.353515 h 1.71875 c 0.0044,-0.28 -0.06622,-0.509722 -0.212891,-0.6875 -0.142222,-0.182222 -0.340417,-0.273437 -0.59375,-0.273437 z"
       transform="translate(0,952.36218)"
       id="path1884"
       inkscape:connector-curvature="0" />
  </g>
  <g
     inkscape:groupmode="layer"
     id="layer2"
     inkscape:label="Layer 2"
     sodipodi:insensitive="true" />
</svg>
