<?xml version="1.0" encoding="UTF-8" standalone="no"?>
<!-- Created with Inkscape (http://www.inkscape.org/) -->

<svg
   xmlns:dc="http://purl.org/dc/elements/1.1/"
   xmlns:cc="http://creativecommons.org/ns#"
   xmlns:rdf="http://www.w3.org/1999/02/22-rdf-syntax-ns#"
   xmlns:svg="http://www.w3.org/2000/svg"
   xmlns="http://www.w3.org/2000/svg"
   xmlns:sodipodi="http://sodipodi.sourceforge.net/DTD/sodipodi-0.dtd"
   xmlns:inkscape="http://www.inkscape.org/namespaces/inkscape"
   width="210mm"
   height="297mm"
   viewBox="0 0 210 297"
   version="1.1"
   id="svg8"
   sodipodi:docname="Basic Socket.svg"
   inkscape:version="0.92.3 (2405546, 2018-03-11)">
  <defs
     id="defs2" />
  <sodipodi:namedview
     id="base"
     pagecolor="#ffffff"
     bordercolor="#666666"
     borderopacity="1.0"
     inkscape:pageopacity="0.0"
     inkscape:pageshadow="2"
     inkscape:zoom="1.4"
     inkscape:cx="326.74025"
     inkscape:cy="758.55744"
     inkscape:document-units="mm"
     inkscape:current-layer="layer2"
     showgrid="true"
     inkscape:snap-object-midpoints="true"
     inkscape:window-width="1920"
     inkscape:window-height="1052"
     inkscape:window-x="0"
     inkscape:window-y="0"
     inkscape:window-maximized="1">
    <inkscape:grid
       type="xygrid"
       id="grid815"
       units="in"
       spacingx="2.54"
       spacingy="2.54"
       empspacing="10" />
  </sodipodi:namedview>
  <metadata
     id="metadata5">
    <rdf:RDF>
      <cc:Work
         rdf:about="">
        <dc:format>image/svg+xml</dc:format>
        <dc:type
           rdf:resource="http://purl.org/dc/dcmitype/StillImage" />
        <dc:title></dc:title>
      </cc:Work>
    </rdf:RDF>
  </metadata>
  <g
     inkscape:groupmode="layer"
     id="layer2"
     inkscape:label="Text"
     style="display:inline">
    <text
       xml:space="preserve"
       style="font-style:normal;font-weight:normal;font-size:3.52777767px;line-height:1.25;font-family:sans-serif;letter-spacing:0px;word-spacing:0px;fill:#000000;fill-opacity:1;stroke:none;stroke-width:0.26458332"
       x="22.3155"
       y="62.899773"
       id="text1179"><tspan
         sodipodi:role="line"
         id="tspan1177"
         x="22.3155"
         y="62.899773"
         style="stroke-width:0.26458332">Socket ATX 24P (Power Supply)</tspan></text>
    <rect
       style="opacity:1;fill:none;fill-opacity:1;stroke:#008000;stroke-width:2;stroke-linecap:round;stroke-linejoin:round;stroke-miterlimit:4;stroke-dasharray:none;stroke-dashoffset:0;stroke-opacity:1"
       id="rect1175"
       width="22.5"
       height="53.999996"
       x="36"
       y="67.5" />
    <path
       style="fill:none;stroke:#000000;stroke-width:0.26458332px;stroke-linecap:butt;stroke-linejoin:miter;stroke-opacity:1"
       d="M 85.5,72 V 84"
       id="path1188"
       inkscape:connector-curvature="0" />
    <path
       style="opacity:1;fill:#ffff00;fill-opacity:1;stroke:none;stroke-width:0.5;stroke-linecap:round;stroke-linejoin:round;stroke-miterlimit:4;stroke-dasharray:none;stroke-dashoffset:0;stroke-opacity:1"
       d="M 90.000189,73.500042 V 116.5 H 133.00015 V 73.500042 Z m 3.500046,1.749763 a 1.7499999,1.7499999 0 0 1 1.749764,1.749766 1.7499999,1.7499999 0 0 1 -1.749764,1.75028 1.7499999,1.7499999 0 0 1 -1.750282,-1.75028 1.7499999,1.7499999 0 0 1 1.750282,-1.749766 z m 35.999865,0 a 1.7499999,1.7499999 0 0 1 1.74977,1.749766 1.7499999,1.7499999 0 0 1 -1.74977,1.75028 1.7499999,1.7499999 0 0 1 -1.75028,-1.75028 1.7499999,1.7499999 0 0 1 1.75028,-1.749766 z M 93.500235,111.24967 a 1.7499999,1.7499999 0 0 1 1.749764,1.75029 1.7499999,1.7499999 0 0 1 -1.749764,1.74976 1.7499999,1.7499999 0 0 1 -1.750282,-1.74976 1.7499999,1.7499999 0 0 1 1.750282,-1.75029 z m 35.999865,0 a 1.75,1.75 0 0 1 1.74977,1.75029 1.75,1.75 0 0 1 -1.74977,1.74976 1.75,1.75 0 0 1 -1.75028,-1.74976 1.75,1.75 0 0 1 1.75028,-1.75029 z"
       id="rect1184"
       inkscape:connector-curvature="0" />
    <g
       id="g1202"
       transform="translate(-1,-1)" />
    <path
       inkscape:connector-curvature="0"
       id="path1208"
       d="m 88.9,110.5 v 6"
       style="fill:none;stroke:#000000;stroke-width:0.26458332px;stroke-linecap:butt;stroke-linejoin:miter;stroke-opacity:1" />
  </g>
  <g
     inkscape:label="PCB"
     inkscape:groupmode="layer"
     id="layer1">
    <path
       style="opacity:1;fill:#000000;fill-opacity:1;stroke:none;stroke-width:1;stroke-linecap:round;stroke-linejoin:round;stroke-miterlimit:4;stroke-dasharray:none;stroke-dashoffset:0;stroke-opacity:1"
       d="m 98.859857,148.40979 a 1.27,1.27 0 0 0 -1.270206,1.27021 1.27,1.27 0 0 0 1.270206,1.27021 1.27,1.27 0 0 0 0.870231,-0.34623 v -1.84692 a 1.27,1.27 0 0 0 -0.870231,-0.34727 z"
       id="path817"
       inkscape:connector-curvature="0" />
    <path
       style="opacity:1;fill:#000000;fill-opacity:1;stroke:none;stroke-width:1;stroke-linecap:round;stroke-linejoin:round;stroke-miterlimit:4;stroke-dasharray:none;stroke-dashoffset:0;stroke-opacity:1"
       d="m 101.39975,148.40979 a 1.27,1.27 0 0 0 -0.86971,0.34623 v 1.84744 a 1.27,1.27 0 0 0 0.86971,0.34675 1.27,1.27 0 0 0 1.27021,-1.27021 1.27,1.27 0 0 0 -1.27021,-1.27021 z"
       id="path819"
       inkscape:connector-curvature="0" />
    <circle
       style="opacity:1;fill:#000000;fill-opacity:1;stroke:none;stroke-width:2;stroke-linecap:round;stroke-linejoin:round;stroke-miterlimit:4;stroke-dasharray:none;stroke-dashoffset:0;stroke-opacity:1"
       id="path883"
       cx="93.980003"
       cy="83.639999"
       r="1.75" />
    <circle
       r="1.75"
       cy="164.92"
       cx="106.68"
       id="circle887"
       style="opacity:1;fill:#000000;fill-opacity:1;stroke:none;stroke-width:2;stroke-linecap:round;stroke-linejoin:round;stroke-miterlimit:4;stroke-dasharray:none;stroke-dashoffset:0;stroke-opacity:1" />
    <circle
       r="1.75"
       cy="159.84"
       cx="106.68"
       id="circle889"
       style="opacity:1;fill:#000000;fill-opacity:1;stroke:none;stroke-width:2;stroke-linecap:round;stroke-linejoin:round;stroke-miterlimit:4;stroke-dasharray:none;stroke-dashoffset:0;stroke-opacity:1" />
    <circle
       style="opacity:1;fill:#000000;fill-opacity:1;stroke:none;stroke-width:2;stroke-linecap:round;stroke-linejoin:round;stroke-miterlimit:4;stroke-dasharray:none;stroke-dashoffset:0;stroke-opacity:1"
       id="circle891"
       cx="106.68"
       cy="149.67999"
       r="1.75" />
    <path
       style="fill:none;stroke:#000000;stroke-width:0.26458332px;stroke-linecap:butt;stroke-linejoin:miter;stroke-opacity:1"
       d="m 106.68,164.92 v -5.08"
       id="path893"
       inkscape:connector-curvature="0" />
    <path
       style="fill:none;stroke:#000000;stroke-width:0.26458332px;stroke-linecap:butt;stroke-linejoin:miter;stroke-opacity:1"
       d="M 106.68,149.68 H 101.6"
       id="path895"
       inkscape:connector-curvature="0" />
    <path
       style="opacity:1;fill:#000000;fill-opacity:1;stroke:none;stroke-width:7.55905485;stroke-linecap:round;stroke-linejoin:round;stroke-miterlimit:4;stroke-dasharray:none;stroke-dashoffset:0;stroke-opacity:1"
       d="M 187.08594 266.45703 A 5.6692911 5.6692911 0 0 0 181.41797 272.12695 A 5.6692911 5.6692911 0 0 0 187.08594 277.79492 L 198.42578 277.79492 C 201.55581 277.79419 204.09302 275.25698 204.09375 272.12695 C 204.0941 268.99616 201.55657 266.45776 198.42578 266.45703 L 187.08594 266.45703 z M 187.08594 269.29102 A 2.8346457 2.8346457 0 0 1 189.92188 272.12695 A 2.8346457 2.8346457 0 0 1 187.08594 274.96094 A 2.8346457 2.8346457 0 0 1 184.25195 272.12695 A 2.8346457 2.8346457 0 0 1 187.08594 269.29102 z M 187.08594 281.91797 A 5.6692911 5.6692911 0 0 0 181.41797 287.58789 A 5.6692911 5.6692911 0 0 0 187.08594 293.25781 A 5.6692911 5.6692911 0 0 0 187.12695 293.25586 L 198.42578 293.25586 C 201.55581 293.25514 204.09302 290.71794 204.09375 287.58789 C 204.0941 284.45712 201.55657 281.91869 198.42578 281.91797 L 187.08594 281.91797 z M 187.08594 284.75391 A 2.8346457 2.8346457 0 0 1 189.92188 287.58789 A 2.8346457 2.8346457 0 0 1 187.08594 290.42188 A 2.8346457 2.8346457 0 0 1 184.25195 287.58789 A 2.8346457 2.8346457 0 0 1 187.08594 284.75391 z M 187.08594 297.38086 A 5.6692911 5.6692911 0 0 0 181.41797 303.04883 A 5.6692911 5.6692911 0 0 0 187.08594 308.71875 L 198.42578 308.71875 C 201.55581 308.71803 204.09302 306.18083 204.09375 303.05078 C 204.0941 299.92001 201.55657 297.38158 198.42578 297.38086 L 187.08594 297.38086 z M 187.08594 300.21484 A 2.8346457 2.8346457 0 0 1 189.92188 303.04883 A 2.8346457 2.8346457 0 0 1 187.08594 305.88477 A 2.8346457 2.8346457 0 0 1 184.25195 303.04883 A 2.8346457 2.8346457 0 0 1 187.08594 300.21484 z M 187.08594 312.8418 A 5.6692911 5.6692911 0 0 0 181.41797 318.51172 A 5.6692911 5.6692911 0 0 0 187.08594 324.17969 L 198.42578 324.17969 C 201.55581 324.17897 204.09302 321.64177 204.09375 318.51172 C 204.0941 315.38095 201.55657 312.84251 198.42578 312.8418 L 187.08594 312.8418 z M 187.08594 315.67578 A 2.8346457 2.8346457 0 0 1 189.92188 318.51172 A 2.8346457 2.8346457 0 0 1 187.08594 321.3457 A 2.8346457 2.8346457 0 0 1 184.25195 318.51172 A 2.8346457 2.8346457 0 0 1 187.08594 315.67578 z M 187.08594 328.30273 A 5.6692911 5.6692911 0 0 0 181.41797 333.97266 A 5.6692911 5.6692911 0 0 0 187.08594 339.64258 A 5.6692911 5.6692911 0 0 0 187.12695 339.64062 L 198.42578 339.64062 C 201.55581 339.63993 204.09302 337.10271 204.09375 333.97266 C 204.0941 330.84188 201.55657 328.30345 198.42578 328.30273 L 187.08594 328.30273 z M 187.08594 331.13867 A 2.8346457 2.8346457 0 0 1 189.92188 333.97266 A 2.8346457 2.8346457 0 0 1 187.08594 336.80664 A 2.8346457 2.8346457 0 0 1 184.25195 333.97266 A 2.8346457 2.8346457 0 0 1 187.08594 331.13867 z M 187.08594 343.76562 A 5.6692911 5.6692911 0 0 0 181.41797 349.43359 A 5.6692911 5.6692911 0 0 0 187.08594 355.10352 L 198.42578 355.10352 C 201.55581 355.1028 204.09302 352.5656 204.09375 349.43555 C 204.0941 346.30478 201.55657 343.76634 198.42578 343.76562 L 187.08594 343.76562 z M 187.08594 346.59961 A 2.8346457 2.8346457 0 0 1 189.92188 349.43359 A 2.8346457 2.8346457 0 0 1 187.08594 352.26953 A 2.8346457 2.8346457 0 0 1 184.25195 349.43359 A 2.8346457 2.8346457 0 0 1 187.08594 346.59961 z M 187.08594 359.22656 A 5.6692911 5.6692911 0 0 0 181.41797 364.89648 A 5.6692911 5.6692911 0 0 0 187.08594 370.56641 A 5.6692911 5.6692911 0 0 0 187.12695 370.56445 L 198.42578 370.56445 C 201.55581 370.56374 204.09302 368.02654 204.09375 364.89648 C 204.0941 361.76571 201.55657 359.22728 198.42578 359.22656 L 187.08594 359.22656 z M 187.08594 362.0625 A 2.8346457 2.8346457 0 0 1 189.92188 364.89648 A 2.8346457 2.8346457 0 0 1 187.08594 367.73047 A 2.8346457 2.8346457 0 0 1 184.25195 364.89648 A 2.8346457 2.8346457 0 0 1 187.08594 362.0625 z M 187.08594 374.68945 A 5.6692911 5.6692911 0 0 0 181.41797 380.35742 A 5.6692911 5.6692911 0 0 0 187.08594 386.02734 L 198.42578 386.02734 C 201.55581 386.02663 204.09302 383.48941 204.09375 380.35938 C 204.0941 377.22858 201.55657 374.69017 198.42578 374.68945 L 187.08594 374.68945 z M 187.08594 377.52344 A 2.8346457 2.8346457 0 0 1 189.92188 380.35742 A 2.8346457 2.8346457 0 0 1 187.08594 383.19336 A 2.8346457 2.8346457 0 0 1 184.25195 380.35742 A 2.8346457 2.8346457 0 0 1 187.08594 377.52344 z M 187.08594 390.15039 A 5.6692911 5.6692911 0 0 0 181.41797 395.82031 A 5.6692911 5.6692911 0 0 0 187.08594 401.48828 L 198.42578 401.48828 C 201.55581 401.48756 204.09302 398.95037 204.09375 395.82031 C 204.0941 392.68954 201.55657 390.15111 198.42578 390.15039 L 187.08594 390.15039 z M 187.08594 392.98438 A 2.8346457 2.8346457 0 0 1 189.92188 395.82031 A 2.8346457 2.8346457 0 0 1 187.08594 398.6543 A 2.8346457 2.8346457 0 0 1 184.25195 395.82031 A 2.8346457 2.8346457 0 0 1 187.08594 392.98438 z M 187.08594 405.61133 A 5.6692911 5.6692911 0 0 0 181.41797 411.28125 A 5.6692911 5.6692911 0 0 0 187.08594 416.95117 A 5.6692911 5.6692911 0 0 0 187.12695 416.94922 L 198.42578 416.94922 C 201.55581 416.9485 204.09302 414.4113 204.09375 411.28125 C 204.0941 408.15048 201.55657 405.61205 198.42578 405.61133 L 187.08594 405.61133 z M 187.08594 408.44727 A 2.8346457 2.8346457 0 0 1 189.92188 411.28125 A 2.8346457 2.8346457 0 0 1 187.08594 414.11523 A 2.8346457 2.8346457 0 0 1 184.25195 411.28125 A 2.8346457 2.8346457 0 0 1 187.08594 408.44727 z M 187.08594 421.07422 A 5.6692911 5.6692911 0 0 0 181.41797 426.74219 A 5.6692911 5.6692911 0 0 0 187.08594 432.41211 L 198.42578 432.41211 C 201.55581 432.41139 204.09302 429.87419 204.09375 426.74414 C 204.0941 423.61337 201.55657 421.07494 198.42578 421.07422 L 187.08594 421.07422 z M 187.08594 423.9082 A 2.8346457 2.8346457 0 0 1 189.92188 426.74219 A 2.8346457 2.8346457 0 0 1 187.08594 429.57812 A 2.8346457 2.8346457 0 0 1 184.25195 426.74219 A 2.8346457 2.8346457 0 0 1 187.08594 423.9082 z M 187.08594 436.53516 A 5.6692911 5.6692911 0 0 0 181.41797 442.20508 A 5.6692911 5.6692911 0 0 0 187.08594 447.87305 L 198.42578 447.87305 C 201.55581 447.87233 204.09302 445.33513 204.09375 442.20508 C 204.0941 439.07431 201.55657 436.53587 198.42578 436.53516 L 187.08594 436.53516 z M 187.08594 439.36914 A 2.8346457 2.8346457 0 0 1 189.92188 442.20508 A 2.8346457 2.8346457 0 0 1 187.08594 445.03906 A 2.8346457 2.8346457 0 0 1 184.25195 442.20508 A 2.8346457 2.8346457 0 0 1 187.08594 439.36914 z "
       transform="scale(0.26458333)"
       id="circle921" />
    <path
       id="path1173"
       d="M 45,70.500087 A 1.4999999,1.4999999 0 0 1 46.49965,72.000254 1.4999999,1.4999999 0 0 1 45,73.499904 h -3.000333 c -0.828153,-1.93e-4 -1.499457,-0.671496 -1.49965,-1.49965 -9.3e-5,-0.828355 0.671296,-1.499973 1.49965,-1.500167 z m 0,0.749827 A 0.75,0.75 0 0 0 44.249658,72.000254 0.75,0.75 0 0 0 45,72.75008 0.75,0.75 0 0 0 45.749827,72.000254 0.75,0.75 0 0 0 45,71.249914 Z m 0,3.34088 A 1.4999999,1.4999999 0 0 1 46.49965,76.090961 1.4999999,1.4999999 0 0 1 45,77.591127 1.4999999,1.4999999 0 0 1 44.98915,77.590611 h -2.989482 c -0.828153,-1.9e-4 -1.499457,-0.671491 -1.49965,-1.49965 -9.3e-5,-0.82835 0.671296,-1.499976 1.49965,-1.500167 z m 0,0.750343 A 0.75,0.75 0 0 0 44.249658,76.090961 0.75,0.75 0 0 0 45,76.840787 0.75,0.75 0 0 0 45.749827,76.090961 0.75,0.75 0 0 0 45,75.341137 Z m 0,3.34088 A 1.4999999,1.4999999 0 0 1 46.49965,80.181668 1.4999999,1.4999999 0 0 1 45,81.681834 h -3.000333 c -0.828153,-1.9e-4 -1.499457,-0.671491 -1.49965,-1.49965 -9.3e-5,-0.82835 0.671296,-1.499976 1.49965,-1.500167 z m 0,0.749824 A 0.75,0.75 0 0 0 44.249658,80.181668 0.75,0.75 0 0 0 45,80.93201 0.75,0.75 0 0 0 45.749827,80.181668 0.75,0.75 0 0 0 45,79.431841 Z m 0,3.340883 A 1.4999999,1.4999999 0 0 1 46.49965,84.272891 1.4999999,1.4999999 0 0 1 45,85.772541 h -3.000333 c -0.828153,-1.9e-4 -1.499457,-0.671491 -1.49965,-1.49965 -9.3e-5,-0.82835 0.671296,-1.499979 1.49965,-1.500167 z m 0,0.749824 A 0.75,0.75 0 0 0 44.249658,84.272891 0.75,0.75 0 0 0 45,85.022715 0.75,0.75 0 0 0 45.749827,84.272891 0.75,0.75 0 0 0 45,83.522548 Z m 0,3.340881 A 1.4999999,1.4999999 0 0 1 46.49965,88.363598 1.4999999,1.4999999 0 0 1 45,89.863764 1.4999999,1.4999999 0 0 1 44.98915,89.863245 h -2.989482 c -0.828153,-1.82e-4 -1.499457,-0.671488 -1.49965,-1.499647 -9.3e-5,-0.828352 0.671296,-1.499979 1.49965,-1.500169 z m 0,0.750342 A 0.75,0.75 0 0 0 44.249658,88.363598 0.75,0.75 0 0 0 45,89.113422 0.75,0.75 0 0 0 45.749827,88.363598 0.75,0.75 0 0 0 45,87.613771 Z m 0,3.340881 a 1.4999999,1.4999999 0 0 1 1.49965,1.49965 A 1.4999999,1.4999999 0 0 1 45,93.954471 h -3.000333 c -0.828153,-1.9e-4 -1.499457,-0.671491 -1.49965,-1.49965 -9.3e-5,-0.82835 0.671296,-1.499979 1.49965,-1.500169 z m 0,0.749826 A 0.75,0.75 0 0 0 44.249658,92.454302 0.75,0.75 0 0 0 45,93.204644 0.75,0.75 0 0 0 45.749827,92.454302 0.75,0.75 0 0 0 45,91.704478 Z m 0,3.340881 A 1.4999999,1.4999999 0 0 1 46.49965,96.545525 1.4999999,1.4999999 0 0 1 45,98.045694 1.4999999,1.4999999 0 0 1 44.98915,98.045175 h -2.989482 c -0.828153,-1.88e-4 -1.499457,-0.671488 -1.49965,-1.49965 -9.3e-5,-0.82835 0.671296,-1.499976 1.49965,-1.500166 z m 0,0.750342 A 0.75,0.75 0 0 0 44.249658,96.545525 0.75,0.75 0 0 0 45,97.295351 0.75,0.75 0 0 0 45.749827,96.545525 0.75,0.75 0 0 0 45,95.795701 Z m 0,3.340881 A 1.4999999,1.4999999 0 0 1 46.49965,100.63623 1.4999999,1.4999999 0 0 1 45,102.13639 h -3.000333 c -0.828153,-1.8e-4 -1.499457,-0.67149 -1.49965,-1.49964 -9.3e-5,-0.828356 0.671296,-1.499978 1.49965,-1.500168 z m 0,0.749822 A 0.75,0.75 0 0 0 44.249658,100.63623 0.75,0.75 0 0 0 45,101.38657 0.75,0.75 0 0 0 45.749827,100.63623 0.75,0.75 0 0 0 45,99.886404 Z m 0,3.340876 a 1.4999999,1.4999999 0 0 1 1.49965,1.50017 A 1.4999999,1.4999999 0 0 1 45,106.2271 h -3.000333 c -0.828153,-1.9e-4 -1.499457,-0.67149 -1.49965,-1.49965 -9.3e-5,-0.82835 0.671296,-1.49997 1.49965,-1.50017 z m 0,0.74983 A 0.75,0.75 0 0 0 44.249658,104.72745 0.75,0.75 0 0 0 45,105.47728 0.75,0.75 0 0 0 45.749827,104.72745 0.75,0.75 0 0 0 45,103.97711 Z m 0,3.34088 a 1.4999999,1.4999999 0 0 1 1.49965,1.50017 1.4999999,1.4999999 0 0 1 -1.49965,1.50016 1.4999999,1.4999999 0 0 1 -0.01085,-5.1e-4 h -2.989482 c -0.828153,-1.9e-4 -1.499457,-0.67149 -1.49965,-1.49965 -9.3e-5,-0.82835 0.671296,-1.49998 1.49965,-1.50017 z m 0,0.75034 A 0.75,0.75 0 0 0 44.249658,108.81816 0.75,0.75 0 0 0 45,109.56798 0.75,0.75 0 0 0 45.749827,108.81816 0.75,0.75 0 0 0 45,108.06833 Z m 0,3.34088 a 1.4999999,1.4999999 0 0 1 1.49965,1.49965 A 1.4999999,1.4999999 0 0 1 45,114.40903 h -3.000333 c -0.828153,-1.9e-4 -1.499457,-0.67149 -1.49965,-1.49965 -9.3e-5,-0.82835 0.671296,-1.49998 1.49965,-1.50017 z m 0,0.74983 A 0.75,0.75 0 0 0 44.249658,112.90886 0.75,0.75 0 0 0 45,113.6592 0.75,0.75 0 0 0 45.749827,112.90886 0.75,0.75 0 0 0 45,112.15904 Z m 0,3.34088 a 1.4999999,1.4999999 0 0 1 1.49965,1.50017 A 1.4999999,1.4999999 0 0 1 45,118.49974 h -3.000333 c -0.828153,-1.9e-4 -1.499457,-0.67149 -1.49965,-1.49965 -9.3e-5,-0.82835 0.671296,-1.49998 1.49965,-1.50017 z m 0,0.74983 A 0.75,0.75 0 0 0 44.249658,117.00009 0.75,0.75 0 0 0 45,117.74991 0.75,0.75 0 0 0 45.749827,117.00009 0.75,0.75 0 0 0 45,116.24975 Z"
       style="opacity:1;fill:#000000;fill-opacity:1;stroke:none;stroke-width:1.99999988;stroke-linecap:round;stroke-linejoin:round;stroke-miterlimit:4;stroke-dasharray:none;stroke-dashoffset:0;stroke-opacity:1"
       inkscape:connector-curvature="0" />
    <circle
       r="1.75"
       cy="88.720001"
       cx="93.980003"
       id="circle1204"
       style="opacity:1;fill:#000000;fill-opacity:1;stroke:none;stroke-width:2;stroke-linecap:round;stroke-linejoin:round;stroke-miterlimit:4;stroke-dasharray:none;stroke-dashoffset:0;stroke-opacity:1" />
    <circle
       style="opacity:1;fill:#000000;fill-opacity:1;stroke:none;stroke-width:2;stroke-linecap:round;stroke-linejoin:round;stroke-miterlimit:4;stroke-dasharray:none;stroke-dashoffset:0;stroke-opacity:1"
       id="circle1206"
       cx="93.980003"
       cy="93.800003"
       r="1.75" />
    <path
       style="opacity:1;fill:#000000;fill-opacity:1;stroke:none;stroke-width:7.55905533;stroke-linecap:round;stroke-linejoin:round;stroke-miterlimit:4;stroke-dasharray:none;stroke-dashoffset:0;stroke-opacity:1"
       d="M 384 541.79492 A 4.7244093 4.7244093 0 0 0 381.16602 542.74414 L 381.16602 550.29102 A 4.7244093 4.7244093 0 0 0 384 551.24414 A 4.7244093 4.7244093 0 0 0 386.83398 550.29297 L 386.83398 542.74414 A 4.7244093 4.7244093 0 0 0 384 541.79492 z "
       transform="scale(0.26458333)"
       id="circle1216" />
    <path
       id="path1223"
       d="m 95.23005,103.96 a 1.2499999,1.2499999 0 0 0 -0.25114,-0.74982 h -1.99678 a 1.2499999,1.2499999 0 0 0 -0.25218,0.74982 1.2499999,1.2499999 0 0 0 0.25166,0.74982 h 1.9973 A 1.2499999,1.2499999 0 0 0 95.23005,103.96 Z"
       style="opacity:1;fill:#000000;fill-opacity:1;stroke:none;stroke-width:2;stroke-linecap:round;stroke-linejoin:round;stroke-miterlimit:4;stroke-dasharray:none;stroke-dashoffset:0;stroke-opacity:1"
       inkscape:connector-curvature="0" />
    <path
       inkscape:connector-curvature="0"
       style="opacity:1;fill:#000000;fill-opacity:1;stroke:none;stroke-width:2;stroke-linecap:round;stroke-linejoin:round;stroke-miterlimit:4;stroke-dasharray:none;stroke-dashoffset:0;stroke-opacity:1"
       d="m 95.23005,101.42 a 1.2499999,1.2499999 0 0 0 -0.25114,-0.74982 h -1.99678 a 1.2499999,1.2499999 0 0 0 -0.25218,0.74982 1.2499999,1.2499999 0 0 0 0.25166,0.74982 h 1.9973 A 1.2499999,1.2499999 0 0 0 95.23005,101.42 Z"
       id="path1225" />
    <path
       id="path1227"
       d="m 95.23005,98.88 a 1.2499999,1.2499999 0 0 0 -0.25114,-0.74982 h -1.99678 a 1.2499999,1.2499999 0 0 0 -0.25218,0.74982 1.2499999,1.2499999 0 0 0 0.25166,0.74982 h 1.9973 A 1.2499999,1.2499999 0 0 0 95.23005,98.88 Z"
       style="opacity:1;fill:#000000;fill-opacity:1;stroke:none;stroke-width:2;stroke-linecap:round;stroke-linejoin:round;stroke-miterlimit:4;stroke-dasharray:none;stroke-dashoffset:0;stroke-opacity:1"
       inkscape:connector-curvature="0" />
    <path
       inkscape:connector-curvature="0"
       style="opacity:1;fill:#000000;fill-opacity:1;stroke:none;stroke-width:2;stroke-linecap:round;stroke-linejoin:round;stroke-miterlimit:4;stroke-dasharray:none;stroke-dashoffset:0;stroke-opacity:1"
       d="m 95.23005,96.34 a 1.2499999,1.2499999 0 0 0 -0.25114,-0.74982 h -1.99678 a 1.2499999,1.2499999 0 0 0 -0.25218,0.74982 1.2499999,1.2499999 0 0 0 0.25166,0.74982 h 1.9973 A 1.2499999,1.2499999 0 0 0 95.23005,96.34 Z"
       id="path1229" />
    <path
       inkscape:connector-curvature="0"
       style="opacity:1;fill:#000000;fill-opacity:1;stroke:none;stroke-width:2;stroke-linecap:round;stroke-linejoin:round;stroke-miterlimit:4;stroke-dasharray:none;stroke-dashoffset:0;stroke-opacity:1"
       d="m 95.23005,106.5 a 1.2499999,1.2499999 0 0 0 -0.25114,-0.74982 h -1.99678 a 1.2499999,1.2499999 0 0 0 -0.25218,0.74982 1.2499999,1.2499999 0 0 0 0.25166,0.74982 h 1.9973 A 1.2499999,1.2499999 0 0 0 95.23005,106.5 Z"
       id="path1231" />
    <path
       id="path1233"
       d="m 95.23005,109.04 a 1.2499999,1.2499999 0 0 0 -0.25114,-0.74982 h -1.99678 a 1.2499999,1.2499999 0 0 0 -0.25218,0.74982 1.2499999,1.2499999 0 0 0 0.25166,0.74982 h 1.9973 A 1.2499999,1.2499999 0 0 0 95.23005,109.04 Z"
       style="opacity:1;fill:#000000;fill-opacity:1;stroke:none;stroke-width:2;stroke-linecap:round;stroke-linejoin:round;stroke-miterlimit:4;stroke-dasharray:none;stroke-dashoffset:0;stroke-opacity:1"
       inkscape:connector-curvature="0" />
  </g>
</svg>
