<?xml version="1.0" encoding="UTF-8" standalone="no"?>
<!-- Created with Inkscape (http://www.inkscape.org/) -->

<svg
   xmlns:dc="http://purl.org/dc/elements/1.1/"
   xmlns:cc="http://creativecommons.org/ns#"
   xmlns:rdf="http://www.w3.org/1999/02/22-rdf-syntax-ns#"
   xmlns:svg="http://www.w3.org/2000/svg"
   xmlns="http://www.w3.org/2000/svg"
   xmlns:sodipodi="http://sodipodi.sourceforge.net/DTD/sodipodi-0.dtd"
   xmlns:inkscape="http://www.inkscape.org/namespaces/inkscape"
   width="210mm"
   height="297mm"
   viewBox="0 0 744.09448819 1052.3622047"
   id="svg2"
   version="1.1"
   inkscape:version="0.91 r13725"
   sodipodi:docname="menu_icon.svg">
  <defs
     id="defs4" />
  <sodipodi:namedview
     id="base"
     pagecolor="#ffffff"
     bordercolor="#666666"
     borderopacity="1.0"
     inkscape:pageopacity="0.0"
     inkscape:pageshadow="2"
     inkscape:zoom="3.959798"
     inkscape:cx="103.00766"
     inkscape:cy="650.79116"
     inkscape:document-units="px"
     inkscape:current-layer="layer1"
     showgrid="false"
     inkscape:window-width="1319"
     inkscape:window-height="744"
     inkscape:window-x="47"
     inkscape:window-y="24"
     inkscape:window-maximized="1" />
  <metadata
     id="metadata7">
    <rdf:RDF>
      <cc:Work
         rdf:about="">
        <dc:format>image/svg+xml</dc:format>
        <dc:type
           rdf:resource="http://purl.org/dc/dcmitype/StillImage" />
        <dc:title />
      </cc:Work>
    </rdf:RDF>
  </metadata>
  <g
     inkscape:label="Layer 1"
     inkscape:groupmode="layer"
     id="layer1">
    <path
       style="opacity:0.5;fill:#f2f2f2;fill-opacity:1;stroke:none;stroke-width:3.54330707;stroke-linecap:round;stroke-linejoin:round;stroke-miterlimit:4;stroke-dasharray:none;stroke-dashoffset:0;stroke-opacity:1"
       d="M 102.14258 376.64844 C 99.372575 376.64844 97.142578 378.87844 97.142578 381.64844 L 97.142578 421.64844 C 97.142578 424.41844 99.372575 426.64844 102.14258 426.64844 L 142.14258 426.64844 C 144.91258 426.64844 147.14258 424.41844 147.14258 421.64844 L 147.14258 381.64844 C 147.14258 378.87844 144.91258 376.64844 142.14258 376.64844 L 102.14258 376.64844 z M 117.56641 388.08398 C 118.6546 388.08398 119.47814 388.41844 120.03906 389.08594 C 120.6056 389.75344 120.88867 390.72475 120.88867 391.99805 L 120.88867 397.73633 L 117.85938 397.73633 L 117.85938 396.80078 L 117.85938 393.34375 C 117.85936 392.53041 117.84005 391.96867 117.80078 391.66016 C 117.76711 391.35165 117.70497 391.12436 117.61523 390.97852 C 117.49744 390.7822 117.33865 390.63197 117.13672 390.52539 C 116.93479 390.41321 116.70529 390.35742 116.44727 390.35742 C 115.81903 390.35742 115.32579 390.59989 114.9668 391.08789 C 114.60781 391.57028 114.42773 392.2414 114.42773 393.09961 L 114.42773 397.73633 L 111.41602 397.73633 L 111.41602 388.3125 L 114.42773 388.3125 L 114.42773 389.69141 C 114.88208 389.1417 115.36456 388.7385 115.875 388.48047 C 116.38544 388.21684 116.94939 388.08398 117.56641 388.08398 z M 128.18359 388.08398 C 129.80467 388.08398 131.06982 388.52144 131.97852 389.39648 C 132.89282 390.27152 133.34961 391.4831 133.34961 393.03125 C 133.34961 394.5794 132.89282 395.79098 131.97852 396.66602 C 131.06982 397.54106 129.80467 397.97852 128.18359 397.97852 C 126.55691 397.97852 125.28319 397.54106 124.36328 396.66602 C 123.44897 395.79098 122.99219 394.5794 122.99219 393.03125 C 122.99219 391.4831 123.44897 390.27152 124.36328 389.39648 C 125.28319 388.52144 126.55691 388.08398 128.18359 388.08398 z M 128.18359 390.23828 C 127.51609 390.23828 127.00572 390.4805 126.65234 390.96289 C 126.30457 391.43968 126.13086 392.12816 126.13086 393.03125 C 126.13086 393.93434 126.30457 394.62698 126.65234 395.10938 C 127.00572 395.58614 127.51609 395.82617 128.18359 395.82617 C 128.83987 395.82617 129.34168 395.58615 129.68945 395.10938 C 130.03723 394.62698 130.21094 393.93434 130.21094 393.03125 C 130.21094 392.12816 130.03723 391.43968 129.68945 390.96289 C 129.34168 390.4805 128.83987 390.23828 128.18359 390.23828 z M 103.2207 402.4043 L 106.45898 402.4043 L 106.45898 414.9668 L 103.2207 414.9668 L 103.2207 402.4043 z M 114.23438 405.31641 C 114.72798 405.31641 115.21267 405.36142 115.68945 405.45117 C 116.17185 405.53531 116.65212 405.664 117.12891 405.83789 L 117.12891 408.29492 C 116.71943 408.01446 116.30572 407.80648 115.89062 407.67188 C 115.48116 407.53724 115.05641 407.4707 114.61328 407.4707 C 113.77189 407.4707 113.1157 407.71732 112.64453 408.21094 C 112.17896 408.69894 111.94531 409.38302 111.94531 410.26367 C 111.94531 411.14432 112.17896 411.83061 112.64453 412.32422 C 113.1157 412.81223 113.77189 413.05664 114.61328 413.05664 C 115.08445 413.05664 115.53048 412.98789 115.95117 412.84766 C 116.37748 412.70743 116.76991 412.49946 117.12891 412.22461 L 117.12891 414.68945 C 116.65773 414.86334 116.17746 414.99203 115.68945 415.07617 C 115.20706 415.16592 114.72235 415.21094 114.23438 415.21094 C 112.53477 415.21094 111.20527 414.77568 110.24609 413.90625 C 109.28691 413.03121 108.80664 411.81743 108.80664 410.26367 C 108.80664 408.70991 109.28691 407.49834 110.24609 406.62891 C 111.20527 405.75386 112.53476 405.31641 114.23438 405.31641 z M 124.23047 405.31641 C 125.85154 405.31641 127.11474 405.75386 128.02344 406.62891 C 128.93774 407.50395 129.39648 408.71552 129.39648 410.26367 C 129.39648 411.81182 128.93774 413.02339 128.02344 413.89844 C 127.11474 414.77348 125.85154 415.21094 124.23047 415.21094 C 122.60378 415.21094 121.33007 414.77348 120.41016 413.89844 C 119.49585 413.02339 119.03906 411.81182 119.03906 410.26367 C 119.03906 408.71552 119.49585 407.50395 120.41016 406.62891 C 121.33007 405.75386 122.60378 405.31641 124.23047 405.31641 z M 137.74219 405.31641 C 138.83038 405.31641 139.65587 405.65086 140.2168 406.31836 C 140.78333 406.98586 141.06641 407.95522 141.06641 409.22852 L 141.06641 414.9668 L 138.03711 414.9668 L 138.03711 414.0332 L 138.03711 410.57422 C 138.03711 409.76088 138.01778 409.20108 137.97852 408.89258 C 137.94485 408.58406 137.88271 408.35678 137.79297 408.21094 C 137.67518 408.01462 137.51443 407.86244 137.3125 407.75586 C 137.11057 407.64368 136.88107 407.58789 136.62305 407.58789 C 135.99481 407.58789 135.50156 407.83231 135.14258 408.32031 C 134.78358 408.80271 134.60352 409.47186 134.60352 410.33008 L 134.60352 414.9668 L 131.5918 414.9668 L 131.5918 405.54297 L 134.60352 405.54297 L 134.60352 406.92383 C 135.05786 406.37412 135.54034 405.96896 136.05078 405.71094 C 136.56122 405.4473 137.12517 405.31641 137.74219 405.31641 z M 124.23047 407.4707 C 123.56297 407.4707 123.05065 407.71096 122.69727 408.19336 C 122.34949 408.67014 122.17578 409.36058 122.17578 410.26367 C 122.17578 411.16676 122.34949 411.8594 122.69727 412.3418 C 123.05065 412.81858 123.56297 413.05664 124.23047 413.05664 C 124.88675 413.05664 125.38855 412.81858 125.73633 412.3418 C 126.0841 411.8594 126.25781 411.16676 126.25781 410.26367 C 126.25781 409.36058 126.0841 408.67014 125.73633 408.19336 C 125.38855 407.71096 124.88675 407.4707 124.23047 407.4707 z "
       id="rect3336"
       inkscape:export-xdpi="90"
       inkscape:export-ydpi="90" />
    <g
       style="font-style:normal;font-weight:normal;font-size:17.23159218px;line-height:100%;font-family:sans-serif;letter-spacing:0px;word-spacing:0px;fill:#000000;fill-opacity:1;stroke:none;stroke-width:1px;stroke-linecap:butt;stroke-linejoin:miter;stroke-opacity:1"
       id="text3338" />
  </g>
</svg>
