<?xml version="1.0" encoding="UTF-8" standalone="no"?>
<!-- Created with Inkscape (http://www.inkscape.org/) -->

<svg
   xmlns:dc="http://purl.org/dc/elements/1.1/"
   xmlns:cc="http://creativecommons.org/ns#"
   xmlns:rdf="http://www.w3.org/1999/02/22-rdf-syntax-ns#"
   xmlns:svg="http://www.w3.org/2000/svg"
   xmlns="http://www.w3.org/2000/svg"
   xmlns:xlink="http://www.w3.org/1999/xlink"
   xmlns:sodipodi="http://sodipodi.sourceforge.net/DTD/sodipodi-0.dtd"
   xmlns:inkscape="http://www.inkscape.org/namespaces/inkscape"
   width="100"
   height="100"
   id="svg2"
   version="1.1"
   inkscape:version="0.92.2 (unknown)"
   inkscape:export-filename="/1.works/www/pos_play/img/anonymous180.png"
   inkscape:export-xdpi="108"
   inkscape:export-ydpi="108"
   sodipodi:docname="anonymous.svg">
  <defs
     id="defs4">
    <linearGradient
       inkscape:collect="always"
       id="linearGradient3818">
      <stop
         style="stop-color:#566d1d;stop-opacity:1"
         offset="0"
         id="stop3820" />
      <stop
         style="stop-color:#5a7025;stop-opacity:0;"
         offset="1"
         id="stop3822" />
    </linearGradient>
    <linearGradient
       inkscape:collect="always"
       id="linearGradient3808">
      <stop
         style="stop-color:#901808;stop-opacity:1"
         offset="0"
         id="stop3810" />
      <stop
         style="stop-color:#c85e62;stop-opacity:1"
         offset="1"
         id="stop3812" />
    </linearGradient>
    <linearGradient
       inkscape:collect="always"
       id="linearGradient3796">
      <stop
         style="stop-color:#196682;stop-opacity:1"
         offset="0"
         id="stop3798" />
      <stop
         style="stop-color:#00a4ed;stop-opacity:1"
         offset="1"
         id="stop3800" />
    </linearGradient>
    <linearGradient
       inkscape:collect="always"
       xlink:href="#linearGradient3796"
       id="linearGradient3802"
       x1="60.5"
       y1="927.86218"
       x2="60.5"
       y2="1008.9377"
       gradientUnits="userSpaceOnUse"
       gradientTransform="matrix(0.66666667,0,0,0.66499998,0,352.54135)" />
    <linearGradient
       inkscape:collect="always"
       xlink:href="#linearGradient3808"
       id="linearGradient3814"
       x1="113"
       y1="962.36218"
       x2="113"
       y2="1023.948"
       gradientUnits="userSpaceOnUse"
       gradientTransform="matrix(0.66666667,0,0,0.66499998,0,352.54135)" />
    <linearGradient
       inkscape:collect="always"
       xlink:href="#linearGradient3818"
       id="linearGradient3824"
       x1="134"
       y1="916.11218"
       x2="134"
       y2="979.13647"
       gradientUnits="userSpaceOnUse"
       gradientTransform="matrix(0.66666667,0,0,0.66499998,0,352.54135)" />
  </defs>
  <sodipodi:namedview
     id="base"
     pagecolor="#e2e2e2"
     bordercolor="#666666"
     borderopacity="1.0"
     inkscape:pageopacity="0"
     inkscape:pageshadow="2"
     inkscape:zoom="0.5"
     inkscape:cx="-2530.9161"
     inkscape:cy="478.69709"
     inkscape:document-units="px"
     inkscape:current-layer="layer1"
     showgrid="false"
     showguides="true"
     inkscape:guide-bbox="true"
     inkscape:window-width="1884"
     inkscape:window-height="1059"
     inkscape:window-x="1956"
     inkscape:window-y="21"
     inkscape:window-maximized="1" />
  <metadata
     id="metadata7">
    <rdf:RDF>
      <cc:Work
         rdf:about="">
        <dc:format>image/svg+xml</dc:format>
        <dc:type
           rdf:resource="http://purl.org/dc/dcmitype/StillImage" />
        <dc:title />
      </cc:Work>
    </rdf:RDF>
  </metadata>
  <g
     inkscape:label="Layer 1"
     inkscape:groupmode="layer"
     id="layer1"
     transform="translate(0,-952.36218)">
    <rect
       style="fill:url(#linearGradient3824);fill-opacity:1;stroke:none;stroke-width:1"
       id="rect3778"
       width="52.142857"
       height="53.674999"
       x="43.452381"
       y="956.88721" />
    <path
       style="fill:#506425;fill-opacity:1;stroke:#506425;stroke-width:1px;stroke-linecap:butt;stroke-linejoin:miter;stroke-opacity:1"
       d="M 95.416667,987.23374 H 90 v -1.91187 h -9.833333 v -3.15875 h -2.583333 v -2.36906 h -1.791667 v -2.49375 h -5.958333 v 28.34559 h 25.208333 z"
       id="path3826"
       inkscape:connector-curvature="0" />
    <path
       style="fill:#39461a;fill-opacity:1;stroke:#39461a;stroke-width:1px;stroke-linecap:butt;stroke-linejoin:miter;stroke-opacity:1"
       d="M 95.708334,1000.3259 H 91.75 v -2.11966 h -1.958333 v 1.95346 h -0.708333 v 1.1222 H 86.25 v 7.4812 h 10.333334 v -8.3956 z"
       id="path3828"
       inkscape:connector-curvature="0" />
    <path
       style="color:#000000;font-style:normal;font-variant:normal;font-weight:normal;font-stretch:normal;font-size:medium;line-height:normal;font-family:Sans;-inkscape-font-specification:Sans;text-indent:0;text-align:start;text-decoration:none;text-decoration-line:none;letter-spacing:normal;word-spacing:normal;text-transform:none;writing-mode:lr-tb;direction:ltr;baseline-shift:baseline;text-anchor:start;display:inline;overflow:visible;visibility:visible;fill:#ffffff;fill-opacity:1;fill-rule:nonzero;stroke:#999999;stroke-width:1;marker:none;enable-background:accumulate"
       d="m 38.729167,952.77843 v 0.3325 67.35197 0.3325 H 39.0625 99.166667 99.5 v -0.3325 -67.35197 -0.3325 H 99.166667 39.0625 Z m 6.508929,6.48375 h 48.095238 v 46.55002 H 45.238096 Z"
       id="rect3770"
       inkscape:connector-curvature="0"
       sodipodi:nodetypes="cccccccccccccccccc" />
    <rect
       y="987.88092"
       x="31.095243"
       height="53.674999"
       width="52.142857"
       id="rect3780"
       style="fill:url(#linearGradient3814);fill-opacity:1;stroke:none;stroke-width:1" />
    <path
       style="fill:#4f1313;fill-opacity:1;stroke:#4f1313;stroke-width:1px;stroke-linecap:butt;stroke-linejoin:miter;stroke-opacity:1"
       d="m 83.208334,1026.8013 h -4.666667 v -4.4472 h -2.958333 v -4.9875 h -6.166667 v 26.0597 H 83 Z"
       id="path3816"
       inkscape:connector-curvature="0" />
    <path
       sodipodi:nodetypes="cccccccccccccccccc"
       inkscape:connector-curvature="0"
       id="path3782"
       d="m 26.372023,983.77218 v 0.3325 67.35202 0.3325 h 0.333333 60.104171 0.333333 v -0.3325 -67.35202 -0.3325 H 86.809527 26.705356 Z m 7.9375,6.48375 H 80.976194 V 1036.806 H 34.309523 Z"
       style="color:#000000;font-style:normal;font-variant:normal;font-weight:normal;font-stretch:normal;font-size:medium;line-height:normal;font-family:Sans;-inkscape-font-specification:Sans;text-indent:0;text-align:start;text-decoration:none;text-decoration-line:none;letter-spacing:normal;word-spacing:normal;text-transform:none;writing-mode:lr-tb;direction:ltr;baseline-shift:baseline;text-anchor:start;display:inline;overflow:visible;visibility:visible;fill:#ffffff;fill-opacity:1;fill-rule:nonzero;stroke:#999999;stroke-width:1;marker:none;enable-background:accumulate" />
    <rect
       style="fill:url(#linearGradient3802);fill-opacity:1;stroke:none;stroke-width:1"
       id="rect3784"
       width="61.879501"
       height="63.697742"
       x="6.0632629"
       y="967.21649" />
    <path
       style="fill:#000000;stroke:#000000;stroke-width:1px;stroke-linecap:butt;stroke-linejoin:miter;stroke-opacity:1"
       d="M 68.682774,991.58547 H 62.20096 v 3.41514 h -1.957651 v 9.98629 h -2.28499 v -3.2328 H 49.29626 v -13.57777 h -3.889086 v 17.10447 H 41.45916 v -4.3291 h -1.902673 v -3.19451 H 37.21652 v 3.35031 H 34.8595 v 4.0557 h -2.2981 v -0.9992 h -4.065867 v -2.4099 h -4.71404 v -2.58623 h -6.422886 v 6.17173 H 15.82654 v -1.9985 H 1.213 v 28.8014 h 68.117954 v -40.43947 z"
       id="path3804"
       inkscape:connector-curvature="0"
       sodipodi:nodetypes="cccccccccccccccccccccccccccccccccc" />
    <path
       style="color:#000000;font-style:normal;font-variant:normal;font-weight:normal;font-stretch:normal;font-size:medium;line-height:normal;font-family:Sans;-inkscape-font-specification:Sans;text-indent:0;text-align:start;text-decoration:none;text-decoration-line:none;letter-spacing:normal;word-spacing:normal;text-transform:none;writing-mode:lr-tb;direction:ltr;baseline-shift:baseline;text-anchor:start;display:inline;overflow:visible;visibility:visible;fill:#ffffff;fill-opacity:1;fill-rule:nonzero;stroke:#999999;stroke-width:1.18673015;marker:none;enable-background:accumulate"
       d="m 0.45807552,962.34052 v 0.39458 79.9287 0.3945 H 0.8536522 72.18108 72.57666 v -0.3945 -79.9287 -0.39458 H 72.18108 0.8536522 Z m 8.08633718,7.69445 H 65.25849 v 55.24233 H 8.5444127 Z"
       id="path3786"
       inkscape:connector-curvature="0"
       sodipodi:nodetypes="cccccccccccccccccc" />
    <ellipse
       style="fill:#fbdbaa;fill-opacity:1;stroke:#0c6a84;stroke-width:1;stroke-opacity:1"
       id="path3806"
       cx="23.161633"
       cy="984.5799"
       rx="4.6845822"
       ry="4.6728706" />
    <rect
       style="opacity:0.5;fill:#ffffff;fill-opacity:0.94117647;stroke:none;stroke-width:1"
       id="rect3773"
       width="100"
       height="99.75"
       x="0"
       y="952.61218" />
    <g
       transform="matrix(0.14161201,0,0,0.14125798,-26.196519,954.66445)"
       id="layer1-6"
       inkscape:label="Layer 1"
       style="opacity:0.5;fill:#ffffff;stroke-width:1.50187862">
      <g
         transform="matrix(1.3971104,0,0,1.3971104,-2601.3165,-1056.1309)"
         id="text3685"
         style="font-style:normal;font-weight:normal;font-size:40px;line-height:125%;font-family:Sans;letter-spacing:0px;word-spacing:0px;fill:#ffffff;fill-opacity:1;stroke:none;stroke-width:1.50187862">
        <path
           id="path4496"
           style="font-variant:normal;font-stretch:normal;font-family:Ubuntu;-inkscape-font-specification:Ubuntu;fill:#ffffff;stroke-width:1.50187862"
           d="m 2087.18,1093.0088 c -0.4534,-1.2 -0.8801,-2.3733 -1.28,-3.52 -0.4,-1.1733 -0.8134,-2.36 -1.24,-3.56 h -12.56 l -2.52,7.08 h -4.04 c 1.0666,-2.9333 2.0666,-5.64 3,-8.12 0.9333,-2.5067 1.84,-4.88 2.72,-7.12 0.9066,-2.24 1.8,-4.3733 2.68,-6.4 0.88,-2.0533 1.8,-4.08 2.76,-6.08 h 3.56 c 0.96,2 1.88,4.0267 2.76,6.08 0.88,2.0267 1.76,4.16 2.64,6.4 0.9066,2.24 1.8266,4.6133 2.76,7.12 0.9333,2.48 1.9333,5.1867 3,8.12 h -4.24 m -3.64,-10.28 c -0.8534,-2.32 -1.7067,-4.56 -2.56,-6.72 -0.8267,-2.1867 -1.6934,-4.28 -2.6,-6.28 -0.9334,2 -1.8267,4.0933 -2.68,6.28 -0.8267,2.16 -1.6534,4.4 -2.48,6.72 h 10.32"
           inkscape:connector-curvature="0" />
        <path
           id="path4498"
           style="font-variant:normal;font-stretch:normal;font-family:Ubuntu;-inkscape-font-specification:Ubuntu;fill:#ffffff;stroke-width:1.50187862"
           d="m 2094.9043,1072.8088 c 0.8534,-0.2133 1.9734,-0.44 3.36,-0.68 1.4134,-0.24 3.04,-0.36 4.88,-0.36 1.3334,0 2.4534,0.1867 3.36,0.56 0.9067,0.3467 1.6667,0.8667 2.28,1.56 0.1867,-0.1333 0.48,-0.32 0.88,-0.56 0.4,-0.24 0.8934,-0.4667 1.48,-0.68 0.5867,-0.24 1.24,-0.44 1.96,-0.6 0.72,-0.1867 1.4934,-0.28 2.32,-0.28 1.6,0 2.9067,0.24 3.92,0.72 1.0134,0.4533 1.8,1.1067 2.36,1.96 0.5867,0.8533 0.9733,1.8667 1.16,3.04 0.2133,1.1733 0.32,2.4533 0.32,3.84 v 11.68 h -3.72 v -10.88 c 0,-1.2267 -0.067,-2.28 -0.2,-3.16 -0.1066,-0.88 -0.3333,-1.6133 -0.68,-2.2 -0.32,-0.5867 -0.7733,-1.0133 -1.36,-1.28 -0.56,-0.2933 -1.2933,-0.44 -2.2,-0.44 -1.2533,0 -2.2933,0.1733 -3.12,0.52 -0.8,0.32 -1.3466,0.6133 -1.64,0.88 0.2134,0.6933 0.3734,1.4533 0.48,2.28 0.1067,0.8267 0.16,1.6933 0.16,2.6 v 11.68 h -3.72 v -10.88 c 0,-1.2267 -0.067,-2.28 -0.2,-3.16 -0.1333,-0.88 -0.3733,-1.6133 -0.72,-2.2 -0.32,-0.5867 -0.7733,-1.0133 -1.36,-1.28 -0.56,-0.2933 -1.28,-0.44 -2.16,-0.44 -0.3733,0 -0.7733,0.013 -1.2,0.04 -0.4266,0.027 -0.84,0.067 -1.24,0.12 -0.3733,0.027 -0.72,0.067 -1.04,0.12 -0.32,0.053 -0.5333,0.093 -0.64,0.12 v 17.56 h -3.72 v -20.2"
           inkscape:connector-curvature="0" />
        <path
           id="path4500"
           style="font-variant:normal;font-stretch:normal;font-family:Ubuntu;-inkscape-font-specification:Ubuntu;fill:#ffffff;stroke-width:1.50187862"
           d="m 2133.0775,1073.1288 c 0.4533,-0.2933 1.1333,-0.6 2.04,-0.92 0.9333,-0.32 2,-0.48 3.2,-0.48 1.4933,0 2.8133,0.2667 3.96,0.8 1.1733,0.5333 2.16,1.28 2.96,2.24 0.8,0.96 1.4,2.1067 1.8,3.44 0.4266,1.3333 0.6399,2.8 0.64,4.4 -10e-5,1.68 -0.2534,3.2 -0.76,4.56 -0.48,1.3333 -1.1734,2.4667 -2.08,3.4 -0.9067,0.9333 -2,1.6533 -3.28,2.16 -1.28,0.5067 -2.72,0.76 -4.32,0.76 -1.7334,0 -3.2667,-0.12 -4.6,-0.36 -1.3334,-0.24 -2.4267,-0.48 -3.28,-0.72 v -29.8 l 3.72,-0.64 v 11.16 m 0,16.64 c 0.3733,0.1067 0.8933,0.2133 1.56,0.32 0.6933,0.08 1.5466,0.12 2.56,0.12 2,0 3.6,-0.6533 4.8,-1.96 1.2,-1.3333 1.8,-3.2133 1.8,-5.64 0,-1.0667 -0.1067,-2.0667 -0.32,-3 -0.2134,-0.9333 -0.56,-1.7333 -1.04,-2.4 -0.48,-0.6933 -1.1067,-1.2267 -1.88,-1.6 -0.7467,-0.4 -1.6534,-0.6 -2.72,-0.6 -1.0134,0 -1.9467,0.1733 -2.8,0.52 -0.8534,0.3467 -1.5067,0.7067 -1.96,1.08 v 13.16"
           inkscape:connector-curvature="0" />
        <path
           id="path4502"
           style="font-variant:normal;font-stretch:normal;font-family:Ubuntu;-inkscape-font-specification:Ubuntu;fill:#ffffff;stroke-width:1.50187862"
           d="m 2156.6712,1093.0088 h -3.72 v -20.8 h 3.72 v 20.8 m -1.88,-24.56 c -0.6667,0 -1.24,-0.2133 -1.72,-0.64 -0.4533,-0.4533 -0.68,-1.0533 -0.68,-1.8 0,-0.7466 0.2267,-1.3333 0.68,-1.76 0.48,-0.4533 1.0533,-0.68 1.72,-0.68 0.6667,0 1.2267,0.2267 1.68,0.68 0.48,0.4267 0.72,1.0134 0.72,1.76 0,0.7467 -0.24,1.3467 -0.72,1.8 -0.4533,0.4267 -1.0133,0.64 -1.68,0.64"
           inkscape:connector-curvature="0" />
        <path
           id="path4504"
           style="font-variant:normal;font-stretch:normal;font-family:Ubuntu;-inkscape-font-specification:Ubuntu;fill:#ffffff;stroke-width:1.50187862"
           d="m 2161.9475,1082.6488 c 0,-1.84 0.2666,-3.44 0.8,-4.8 0.5333,-1.3867 1.24,-2.5333 2.12,-3.44 0.88,-0.9067 1.8933,-1.5867 3.04,-2.04 1.1466,-0.4533 2.32,-0.68 3.52,-0.68 2.8,0 4.9466,0.88 6.44,2.64 1.4933,1.7333 2.24,4.3867 2.24,7.96 0,0.16 0,0.3733 0,0.64 0,0.24 -0.013,0.4667 -0.04,0.68 h -14.24 c 0.16,2.16 0.7866,3.8 1.88,4.92 1.0933,1.12 2.8,1.68 5.12,1.68 1.3066,0 2.4,-0.1067 3.28,-0.32 0.9066,-0.24 1.5866,-0.4667 2.04,-0.68 l 0.52,3.12 c -0.4534,0.24 -1.2534,0.4933 -2.4,0.76 -1.12,0.2667 -2.4,0.4 -3.84,0.4 -1.8134,0 -3.3867,-0.2667 -4.72,-0.8 -1.3067,-0.56 -2.3867,-1.32 -3.24,-2.28 -0.8534,-0.96 -1.4934,-2.0933 -1.92,-3.4 -0.4,-1.3333 -0.6,-2.7867 -0.6,-4.36 m 14.28,-2.04 c 0.027,-1.68 -0.4,-3.0533 -1.28,-4.12 -0.8534,-1.0933 -2.04,-1.64 -3.56,-1.64 -0.8534,0 -1.6134,0.1733 -2.28,0.52 -0.64,0.32 -1.1867,0.7467 -1.64,1.28 -0.4534,0.5333 -0.8134,1.1467 -1.08,1.84 -0.24,0.6933 -0.4,1.4 -0.48,2.12 h 10.32"
           inkscape:connector-curvature="0" />
        <path
           id="path4506"
           style="font-variant:normal;font-stretch:normal;font-family:Ubuntu;-inkscape-font-specification:Ubuntu;fill:#ffffff;stroke-width:1.50187862"
           d="m 2185.4512,1072.8088 c 0.8533,-0.2133 1.9867,-0.44 3.4,-0.68 1.4133,-0.24 3.04,-0.36 4.88,-0.36 1.6533,0 3.0267,0.24 4.12,0.72 1.0933,0.4533 1.96,1.1067 2.6,1.96 0.6667,0.8267 1.1333,1.8267 1.4,3 0.2667,1.1733 0.4,2.4667 0.4,3.88 v 11.68 h -3.72 v -10.88 c 0,-1.28 -0.093,-2.3733 -0.28,-3.28 -0.16,-0.9067 -0.44,-1.64 -0.84,-2.2 -0.4,-0.56 -0.9333,-0.96 -1.6,-1.2 -0.6667,-0.2667 -1.4933,-0.4 -2.48,-0.4 -0.4,0 -0.8133,0.013 -1.24,0.04 -0.4267,0.027 -0.84,0.067 -1.24,0.12 -0.3733,0.027 -0.72,0.067 -1.04,0.12 -0.2933,0.053 -0.5067,0.093 -0.64,0.12 v 17.56 h -3.72 v -20.2"
           inkscape:connector-curvature="0" />
        <path
           id="path4508"
           style="font-variant:normal;font-stretch:normal;font-family:Ubuntu;-inkscape-font-specification:Ubuntu;fill:#ffffff;stroke-width:1.50187862"
           d="m 2211.9,1072.2088 h 7.88 v 3.12 h -7.88 v 9.6 c 0,1.04 0.08,1.9067 0.24,2.6 0.16,0.6667 0.4,1.2 0.72,1.6 0.32,0.3733 0.72,0.64 1.2,0.8 0.48,0.16 1.04,0.24 1.68,0.24 1.12,0 2.0133,-0.12 2.68,-0.36 0.6933,-0.2667 1.1733,-0.4533 1.44,-0.56 l 0.72,3.08 c -0.3734,0.1867 -1.0267,0.4133 -1.96,0.68 -0.9334,0.2933 -2,0.44 -3.2,0.44 -1.4134,0 -2.5867,-0.1733 -3.52,-0.52 -0.9067,-0.3733 -1.64,-0.92 -2.2,-1.64 -0.56,-0.72 -0.96,-1.6 -1.2,-2.64 -0.2134,-1.0667 -0.32,-2.2933 -0.32,-3.68 v -18.56 l 3.72,-0.64 v 6.44"
           inkscape:connector-curvature="0" />
        <path
           id="path4510"
           style="font-variant:normal;font-stretch:normal;font-family:Ubuntu;-inkscape-font-specification:Ubuntu;fill:#ffffff;stroke-width:1.50187862"
           d="m 2241.3325,1065.0088 c 3.8933,0 6.88,0.7467 8.96,2.24 2.1066,1.4667 3.1599,3.6667 3.16,6.6 -10e-5,1.6 -0.2934,2.9733 -0.88,4.12 -0.5601,1.12 -1.3867,2.04 -2.48,2.76 -1.0667,0.6933 -2.3734,1.2 -3.92,1.52 -1.5467,0.32 -3.2934,0.48 -5.24,0.48 h -3.08 v 10.28 h -3.88 v -27.32 c 1.0933,-0.2667 2.3066,-0.44 3.64,-0.52 1.36,-0.1066 2.6,-0.16 3.72,-0.16 m 0.32,3.4 c -1.6534,0 -2.92,0.04 -3.8,0.12 v 10.88 h 2.92 c 1.3333,0 2.5333,-0.08 3.6,-0.24 1.0666,-0.1867 1.96,-0.48 2.68,-0.88 0.7466,-0.4267 1.32,-1 1.72,-1.72 0.4,-0.72 0.6,-1.64 0.6,-2.76 0,-1.0667 -0.2134,-1.9467 -0.64,-2.64 -0.4,-0.6933 -0.96,-1.24 -1.68,-1.64 -0.6934,-0.4267 -1.5067,-0.72 -2.44,-0.88 -0.9334,-0.16 -1.92,-0.24 -2.96,-0.24"
           inkscape:connector-curvature="0" />
        <path
           id="path4512"
           style="font-variant:normal;font-stretch:normal;font-family:Ubuntu;-inkscape-font-specification:Ubuntu;fill:#ffffff;stroke-width:1.50187862"
           d="m 2257.1493,1079.1288 c 0,-2.3733 0.3467,-4.4667 1.04,-6.28 0.72,-1.8133 1.68,-3.32 2.88,-4.52 1.2267,-1.2267 2.64,-2.1467 4.24,-2.76 1.6267,-0.6133 3.3467,-0.92 5.16,-0.92 1.7867,0 3.4667,0.3067 5.04,0.92 1.6,0.6133 3,1.5333 4.2,2.76 1.2,1.2 2.1467,2.7067 2.84,4.52 0.72,1.8133 1.08,3.9067 1.08,6.28 0,2.3733 -0.36,4.4667 -1.08,6.28 -0.6933,1.8133 -1.64,3.3333 -2.84,4.56 -1.2,1.2 -2.6,2.1067 -4.2,2.72 -1.5733,0.6133 -3.2533,0.92 -5.04,0.92 -1.8133,0 -3.5333,-0.3067 -5.16,-0.92 -1.6,-0.6133 -3.0133,-1.52 -4.24,-2.72 -1.2,-1.2267 -2.16,-2.7467 -2.88,-4.56 -0.6933,-1.8133 -1.04,-3.9067 -1.04,-6.28 m 4.08,0 c 0,1.68 0.2134,3.2133 0.64,4.6 0.4267,1.36 1.0267,2.52 1.8,3.48 0.8,0.96 1.76,1.7067 2.88,2.24 1.1467,0.5067 2.4267,0.76 3.84,0.76 1.4134,0 2.68,-0.2533 3.8,-0.76 1.12,-0.5333 2.0667,-1.28 2.84,-2.24 0.8,-0.96 1.4134,-2.12 1.84,-3.48 0.4267,-1.3867 0.64,-2.92 0.64,-4.6 0,-1.68 -0.2133,-3.2 -0.64,-4.56 -0.4266,-1.3867 -1.04,-2.56 -1.84,-3.52 -0.7733,-0.96 -1.72,-1.6933 -2.84,-2.2 -1.12,-0.5333 -2.3866,-0.8 -3.8,-0.8 -1.4133,0 -2.6933,0.2667 -3.84,0.8 -1.12,0.5067 -2.08,1.24 -2.88,2.2 -0.7733,0.96 -1.3733,2.1333 -1.8,3.52 -0.4266,1.36 -0.64,2.88 -0.64,4.56"
           inkscape:connector-curvature="0" />
        <path
           id="path4514"
           style="font-variant:normal;font-stretch:normal;font-family:Ubuntu;-inkscape-font-specification:Ubuntu;fill:#ffffff;stroke-width:1.50187862"
           d="m 2295.4125,1090.2488 c 4.0533,0 6.08,-1.3867 6.08,-4.16 0,-0.8533 -0.1867,-1.5733 -0.56,-2.16 -0.3467,-0.6133 -0.8267,-1.1333 -1.44,-1.56 -0.6134,-0.4533 -1.32,-0.84 -2.12,-1.16 -0.7734,-0.32 -1.6,-0.64 -2.48,-0.96 -1.0134,-0.3467 -1.9734,-0.7333 -2.88,-1.16 -0.9067,-0.4533 -1.6934,-0.9733 -2.36,-1.56 -0.6667,-0.6133 -1.2,-1.3333 -1.6,-2.16 -0.3734,-0.8267 -0.56,-1.8267 -0.56,-3 0,-2.4267 0.8266,-4.32 2.48,-5.68 1.6533,-1.36 3.9333,-2.04 6.84,-2.04 1.68,0 3.2,0.1867 4.56,0.56 1.3866,0.3467 2.4,0.7333 3.04,1.16 l -1.24,3.16 c -0.56,-0.3467 -1.4,-0.68 -2.52,-1 -1.0934,-0.3467 -2.3734,-0.52 -3.84,-0.52 -0.7467,0 -1.44,0.08 -2.08,0.24 -0.64,0.16 -1.2,0.4 -1.68,0.72 -0.48,0.32 -0.8667,0.7333 -1.16,1.24 -0.2667,0.48 -0.4,1.0533 -0.4,1.72 0,0.7467 0.1466,1.3733 0.44,1.88 0.2933,0.5067 0.7066,0.96 1.24,1.36 0.5333,0.3733 1.1466,0.72 1.84,1.04 0.72,0.32 1.5066,0.64 2.36,0.96 1.2,0.48 2.2933,0.96 3.28,1.44 1.0133,0.48 1.88,1.0533 2.6,1.72 0.7466,0.6667 1.32,1.4667 1.72,2.4 0.4,0.9067 0.6,2.0133 0.6,3.32 0,2.4267 -0.8934,4.2933 -2.68,5.6 -1.76,1.3067 -4.2534,1.96 -7.48,1.96 -1.0934,0 -2.1067,-0.08 -3.04,-0.24 -0.9067,-0.1333 -1.72,-0.2933 -2.44,-0.48 -0.72,-0.2133 -1.3467,-0.4267 -1.88,-0.64 -0.5067,-0.24 -0.9067,-0.44 -1.2,-0.6 l 1.16,-3.2 c 0.6133,0.3467 1.5466,0.7333 2.8,1.16 1.2533,0.4267 2.7866,0.64 4.6,0.64"
           inkscape:connector-curvature="0" />
      </g>
      <path
         id="path4465"
         d="m 292.79769,480.43028 c 1.48052,1.57063 3.51457,3.42446 6.06877,4.97721 h 55.05481 v -4.97721 z m 260.29914,0 v 4.97721 h 66.71202 v -4.97721 z"
         style="color:#000000;font-style:normal;font-variant:normal;font-weight:normal;font-stretch:normal;font-size:medium;line-height:normal;font-family:Sans;-inkscape-font-specification:Sans;text-indent:0;text-align:start;text-decoration:none;text-decoration-line:none;letter-spacing:normal;word-spacing:normal;text-transform:none;writing-mode:lr-tb;direction:ltr;baseline-shift:baseline;text-anchor:start;display:inline;overflow:visible;visibility:visible;fill:#ffffff;fill-opacity:1;stroke:none;stroke-width:5.32161713;marker:none;enable-background:accumulate"
         inkscape:connector-curvature="0"
         sodipodi:nodetypes="cccccccccc" />
      <path
         sodipodi:nodetypes="scccccccccs"
         inkscape:connector-curvature="0"
         id="path3691"
         d="m 357.16061,353.54371 c -29.82467,0 -60.7159,21.90446 -60.18388,57.54153 -31.50246,6.02686 -47.08178,53.90401 -7.47887,72.49927 -22.9263,-19.60159 -10.0652,-56.80147 20.19719,-58.39767 -6.35476,-40.22491 17.94392,-61.4051 46.65664,-63.26186 26.16746,0 47.13389,15.57331 53.42857,34.27084 44.20737,-8.07977 49.75236,17.86694 54.94542,31.60347 27.99055,-5.09358 42.3372,3.56319 50.8347,15.55236 -6.74064,-36.33759 -39.28353,-34.92581 -48.20939,-34.92581 -2.56412,-9.87896 -25.2979,-30.51107 -54.73166,-26.28244 -6.61462,-16.06775 -34.30646,-28.59969 -55.45872,-28.59969 z"
         style="color:#000000;font-style:normal;font-variant:normal;font-weight:normal;font-stretch:normal;font-size:medium;line-height:normal;font-family:Sans;-inkscape-font-specification:Sans;text-indent:0;text-align:start;text-decoration:none;text-decoration-line:none;letter-spacing:normal;word-spacing:normal;text-transform:none;writing-mode:lr-tb;direction:ltr;baseline-shift:baseline;text-anchor:start;display:inline;overflow:visible;visibility:visible;fill:#ffffff;fill-opacity:1;stroke:none;stroke-width:1.50187862px;marker:none;enable-background:accumulate" />
      <text
         id="text4471"
         y="486.28922"
         x="364.92523"
         style="font-style:normal;font-weight:normal;font-size:55.88441467px;line-height:125%;font-family:Sans;letter-spacing:0px;word-spacing:0px;fill:#ffffff;fill-opacity:1;stroke:none;stroke-width:1.50187862"
         xml:space="preserve"><tspan
           style="font-size:9.77977276px;letter-spacing:6.98555183px;fill:#ffffff;stroke-width:1.50187862"
           y="486.28922"
           x="364.92523"
           id="tspan4473"
           sodipodi:role="line">by Ambient Soft</tspan></text>
    </g>
  </g>
</svg>
