<?xml version="1.0" encoding="UTF-8" standalone="no"?>
<!-- Created with Inkscape (http://www.inkscape.org/) -->

<svg
   xmlns:dc="http://purl.org/dc/elements/1.1/"
   xmlns:cc="http://creativecommons.org/ns#"
   xmlns:rdf="http://www.w3.org/1999/02/22-rdf-syntax-ns#"
   xmlns:svg="http://www.w3.org/2000/svg"
   xmlns="http://www.w3.org/2000/svg"
   xmlns:sodipodi="http://sodipodi.sourceforge.net/DTD/sodipodi-0.dtd"
   xmlns:inkscape="http://www.inkscape.org/namespaces/inkscape"
   width="110.16747mm"
   height="14.252281mm"
   viewBox="0 0 390.35719 50.500209"
   id="svg2"
   version="1.1"
   inkscape:version="0.91 r13725"
   sodipodi:docname="bar_style.svg">
  <defs
     id="defs4" />
  <sodipodi:namedview
     id="base"
     pagecolor="#ffffff"
     bordercolor="#666666"
     borderopacity="1.0"
     inkscape:pageopacity="0.0"
     inkscape:pageshadow="2"
     inkscape:zoom="0.49497475"
     inkscape:cx="972.3445"
     inkscape:cy="299.02586"
     inkscape:document-units="px"
     inkscape:current-layer="layer1"
     showgrid="false"
     fit-margin-top="0"
     fit-margin-left="0"
     fit-margin-right="0"
     fit-margin-bottom="0"
     inkscape:window-width="1872"
     inkscape:window-height="1059"
     inkscape:window-x="1128"
     inkscape:window-y="621"
     inkscape:window-maximized="1" />
  <metadata
     id="metadata7">
    <rdf:RDF>
      <cc:Work
         rdf:about="">
        <dc:format>image/svg+xml</dc:format>
        <dc:type
           rdf:resource="http://purl.org/dc/dcmitype/StillImage" />
        <dc:title></dc:title>
      </cc:Work>
    </rdf:RDF>
  </metadata>
  <g
     inkscape:label="Layer 1"
     inkscape:groupmode="layer"
     id="layer1"
     transform="translate(1340.0714,-384.1477)">
    <path
       style="opacity:1;fill:#0000ff;fill-opacity:1;stroke:#000000;stroke-width:1;stroke-linecap:butt;stroke-linejoin:round;stroke-miterlimit:4;stroke-dasharray:none;stroke-dashoffset:0;stroke-opacity:1"
       d="m -950.21428,384.1477 0,34.00021 c 0,0 0.15159,16 -16,16 l -151.35712,0 c -3.324,0 -6,-2.676 -6,-6 l 0,-44.00021"
       id="rect4147"
       inkscape:connector-curvature="0"
       sodipodi:nodetypes="cccssc"
       inkscape:export-xdpi="89.108589"
       inkscape:export-ydpi="89.108589" />
    <path
       style="opacity:1;fill:#b3b3b3;fill-opacity:1;stroke:none;stroke-width:2;stroke-linecap:round;stroke-linejoin:round;stroke-miterlimit:4;stroke-dasharray:none;stroke-dashoffset:0;stroke-opacity:1"
       d="m -1112.1747,387.74546 c -4.0976,0 -7.3965,3.2989 -7.3965,7.39648 l 0,28.01172 c 0,4.09759 3.2989,7.39649 7.3965,7.39649 l 28.0117,0 c 4.0976,0 7.3965,-3.2989 7.3965,-7.39649 l 0,-28.01172 c 0,-4.09758 -3.2989,-7.39648 -7.3965,-7.39648 l -28.0117,0 z m -3.5312,15.46875 3.0019,0 0,11.64258 -3.0019,0 0,-11.64258 z m 10.207,2.69726 c 0.4575,0 0.9077,0.0418 1.3496,0.125 0.4471,0.078 0.8902,0.19822 1.3321,0.35938 l 0,2.27734 c -0.3795,-0.25993 -0.7599,-0.45336 -1.1446,-0.57812 -0.3795,-0.12477 -0.7748,-0.1875 -1.1855,-0.1875 -0.7798,0 -1.3895,0.23002 -1.8262,0.6875 -0.4315,0.45228 -0.6465,1.08616 -0.6465,1.90234 0,0.81618 0.215,1.45268 0.6465,1.91016 0.4367,0.45228 1.0464,0.67773 1.8262,0.67773 0.4367,0 0.8484,-0.0634 1.2383,-0.19336 0.3951,-0.12996 0.759,-0.32339 1.0918,-0.57812 l 0,2.28515 c -0.4367,0.16116 -0.8798,0.2814 -1.3321,0.35938 -0.4471,0.0832 -0.8973,0.12305 -1.3496,0.12305 -1.5752,0 -2.8063,-0.40125 -3.6953,-1.20704 -0.889,-0.81098 -1.334,-1.93693 -1.334,-3.37695 0,-1.44002 0.445,-2.56335 1.334,-3.36914 0.889,-0.81098 2.1201,-1.2168 3.6953,-1.2168 z m 9.2637,0 c 1.5024,0 2.6754,0.40582 3.5176,1.2168 0.8473,0.81098 1.2714,1.93432 1.2714,3.36914 0,1.43482 -0.4241,2.55816 -1.2714,3.36914 -0.8422,0.81099 -2.0152,1.21485 -3.5176,1.21485 -1.5076,0 -2.6865,-0.40386 -3.5391,-1.21485 -0.8474,-0.81098 -1.2715,-1.93432 -1.2715,-3.36914 0,-1.43482 0.4241,-2.55816 1.2715,-3.36914 0.8526,-0.81098 2.0315,-1.2168 3.5391,-1.2168 z m 12.5234,0 c 1.0086,0 1.7731,0.3091 2.293,0.92774 0.5251,0.61863 0.7871,1.51913 0.7871,2.69922 l 0,5.31836 -2.8066,0 0,-0.86719 0,-3.20313 c 0,-0.7538 -0.018,-1.27462 -0.055,-1.56054 -0.031,-0.28593 -0.089,-0.4957 -0.1719,-0.63086 -0.1092,-0.18195 -0.2562,-0.3231 -0.4434,-0.42188 -0.1871,-0.10397 -0.4015,-0.15625 -0.6406,-0.15625 -0.5823,0 -1.0403,0.22741 -1.3731,0.67969 -0.3327,0.44708 -0.498,1.06789 -0.498,1.86328 l 0,4.29688 -2.791,0 0,-8.73438 2.791,0 0,1.2793 c 0.4211,-0.50947 0.8687,-0.88391 1.3418,-1.12305 0.4731,-0.24433 0.9946,-0.36719 1.5664,-0.36719 z m -12.5234,1.9961 c -0.6187,0 -1.0924,0.22479 -1.4199,0.67187 -0.3224,0.44188 -0.4825,1.08099 -0.4825,1.91797 0,0.83698 0.1601,1.4787 0.4825,1.92578 0.3275,0.44188 0.8012,0.66211 1.4199,0.66211 0.6082,0 1.0742,-0.22023 1.3965,-0.66211 0.3223,-0.44708 0.4824,-1.0888 0.4824,-1.92578 0,-0.83698 -0.1601,-1.47609 -0.4824,-1.91797 -0.3223,-0.44708 -0.7883,-0.67187 -1.3965,-0.67187 z"
       id="rect4150"
       inkscape:connector-curvature="0"
       inkscape:export-xdpi="89.108589"
       inkscape:export-ydpi="89.108589" />
    <text
       xml:space="preserve"
       style="font-style:normal;font-weight:normal;font-size:17.54472542px;line-height:125%;font-family:sans-serif;letter-spacing:0px;word-spacing:0px;fill:#b3b3b3;fill-opacity:1;stroke:none;stroke-width:1px;stroke-linecap:butt;stroke-linejoin:miter;stroke-opacity:1"
       x="-1069.6753"
       y="413.83383"
       id="text4157"
       sodipodi:linespacing="125%"
       inkscape:export-xdpi="89.108589"
       inkscape:export-ydpi="89.108589"><tspan
         sodipodi:role="line"
         id="tspan4159"
         x="-1069.6753"
         y="413.83383"
         style="font-style:normal;font-variant:normal;font-weight:bold;font-stretch:normal;font-family:sans-serif;-inkscape-font-specification:'sans-serif Bold';fill:#b3b3b3;fill-opacity:1">Group Text</tspan></text>
    <path
       sodipodi:nodetypes="cccssc"
       inkscape:connector-curvature="0"
       id="path4161"
       d="m -1150.2143,384.1477 0,34.00021 c 0,0 0.1516,16 -16,16 l -31.3571,0 c -3.324,0 -6,-2.676 -6,-6 l 0,-44.00021"
       style="opacity:1;fill:#0000ff;fill-opacity:1;stroke:#000000;stroke-width:1;stroke-linecap:butt;stroke-linejoin:round;stroke-miterlimit:4;stroke-dasharray:none;stroke-dashoffset:0;stroke-opacity:1"
       inkscape:export-xdpi="89.108589"
       inkscape:export-ydpi="89.108589" />
    <path
       inkscape:connector-curvature="0"
       id="path4163"
       d="m -1190.8987,387.74546 c -4.0976,0 -7.3965,3.2989 -7.3965,7.39648 l 0,28.01172 c 0,4.09759 3.2989,7.39649 7.3965,7.39649 l 28.0117,0 c 4.0976,0 7.3965,-3.2989 7.3965,-7.39649 l 0,-28.01172 c 0,-4.09758 -3.2989,-7.39648 -7.3965,-7.39648 l -28.0117,0 z m -3.5312,15.46875 3.0019,0 0,11.64258 -3.0019,0 0,-11.64258 z m 10.207,2.69726 c 0.4575,0 0.9077,0.0418 1.3496,0.125 0.4471,0.078 0.8902,0.19822 1.3321,0.35938 l 0,2.27734 c -0.3795,-0.25993 -0.7599,-0.45336 -1.1446,-0.57812 -0.3795,-0.12477 -0.7748,-0.1875 -1.1855,-0.1875 -0.7798,0 -1.3895,0.23002 -1.8262,0.6875 -0.4315,0.45228 -0.6465,1.08616 -0.6465,1.90234 0,0.81618 0.215,1.45268 0.6465,1.91016 0.4367,0.45228 1.0464,0.67773 1.8262,0.67773 0.4367,0 0.8484,-0.0634 1.2383,-0.19336 0.3951,-0.12996 0.759,-0.32339 1.0918,-0.57812 l 0,2.28515 c -0.4367,0.16116 -0.8798,0.2814 -1.3321,0.35938 -0.4471,0.0832 -0.8973,0.12305 -1.3496,0.12305 -1.5752,0 -2.8063,-0.40125 -3.6953,-1.20704 -0.889,-0.81098 -1.334,-1.93693 -1.334,-3.37695 0,-1.44002 0.445,-2.56335 1.334,-3.36914 0.889,-0.81098 2.1201,-1.2168 3.6953,-1.2168 z m 9.2637,0 c 1.5024,0 2.6754,0.40582 3.5176,1.2168 0.8473,0.81098 1.2714,1.93432 1.2714,3.36914 0,1.43482 -0.4241,2.55816 -1.2714,3.36914 -0.8422,0.81099 -2.0152,1.21485 -3.5176,1.21485 -1.5076,0 -2.6865,-0.40386 -3.5391,-1.21485 -0.8474,-0.81098 -1.2715,-1.93432 -1.2715,-3.36914 0,-1.43482 0.4241,-2.55816 1.2715,-3.36914 0.8526,-0.81098 2.0315,-1.2168 3.5391,-1.2168 z m 12.5234,0 c 1.0086,0 1.7731,0.3091 2.293,0.92774 0.5251,0.61863 0.7871,1.51913 0.7871,2.69922 l 0,5.31836 -2.8066,0 0,-0.86719 0,-3.20313 c 0,-0.7538 -0.018,-1.27462 -0.055,-1.56054 -0.031,-0.28593 -0.089,-0.4957 -0.1719,-0.63086 -0.1092,-0.18195 -0.2562,-0.3231 -0.4434,-0.42188 -0.1871,-0.10397 -0.4015,-0.15625 -0.6406,-0.15625 -0.5823,0 -1.0403,0.22741 -1.3731,0.67969 -0.3327,0.44708 -0.498,1.06789 -0.498,1.86328 l 0,4.29688 -2.791,0 0,-8.73438 2.791,0 0,1.2793 c 0.4211,-0.50947 0.8687,-0.88391 1.3418,-1.12305 0.4731,-0.24433 0.9946,-0.36719 1.5664,-0.36719 z m -12.5234,1.9961 c -0.6187,0 -1.0924,0.22479 -1.4199,0.67187 -0.3224,0.44188 -0.4825,1.08099 -0.4825,1.91797 0,0.83698 0.1601,1.4787 0.4825,1.92578 0.3275,0.44188 0.8012,0.66211 1.4199,0.66211 0.6082,0 1.0742,-0.22023 1.3965,-0.66211 0.3223,-0.44708 0.4824,-1.0888 0.4824,-1.92578 0,-0.83698 -0.1601,-1.47609 -0.4824,-1.91797 -0.3223,-0.44708 -0.7883,-0.67187 -1.3965,-0.67187 z"
       style="opacity:1;fill:#b3b3b3;fill-opacity:1;stroke:none;stroke-width:2;stroke-linecap:round;stroke-linejoin:round;stroke-miterlimit:4;stroke-dasharray:none;stroke-dashoffset:0;stroke-opacity:1"
       inkscape:export-xdpi="89.108589"
       inkscape:export-ydpi="89.108589" />
    <path
       sodipodi:nodetypes="cccssc"
       inkscape:connector-curvature="0"
       id="path4169"
       d="m -1210.2143,384.1477 0,34.00021 c 0,0 0.1516,16 -16,16 l -107.3571,0 c -3.324,0 -6,-2.676 -6,-6 l 0,-44.00021"
       style="opacity:1;fill:#0000ff;fill-opacity:1;stroke:#000000;stroke-width:1;stroke-linecap:butt;stroke-linejoin:round;stroke-miterlimit:4;stroke-dasharray:none;stroke-dashoffset:0;stroke-opacity:1"
       inkscape:export-xdpi="89.108589"
       inkscape:export-ydpi="89.108589" />
    <text
       sodipodi:linespacing="125%"
       id="text4173"
       y="413.83383"
       x="-1328.8892"
       style="font-style:normal;font-weight:normal;font-size:17.54472542px;line-height:125%;font-family:sans-serif;letter-spacing:0px;word-spacing:0px;fill:#b3b3b3;fill-opacity:1;stroke:none;stroke-width:1px;stroke-linecap:butt;stroke-linejoin:miter;stroke-opacity:1"
       xml:space="preserve"
       inkscape:export-xdpi="89.108589"
       inkscape:export-ydpi="89.108589"><tspan
         style="font-style:normal;font-variant:normal;font-weight:bold;font-stretch:normal;font-family:sans-serif;-inkscape-font-specification:'sans-serif Bold';fill:#b3b3b3;fill-opacity:1"
         y="413.83383"
         x="-1328.8892"
         id="tspan4175"
         sodipodi:role="line">Group Text</tspan></text>
  </g>
</svg>
