<?xml version="1.0" encoding="UTF-8" standalone="no"?>
<!-- Created with Inkscape (http://www.inkscape.org/) -->

<svg
   xmlns:dc="http://purl.org/dc/elements/1.1/"
   xmlns:cc="http://creativecommons.org/ns#"
   xmlns:rdf="http://www.w3.org/1999/02/22-rdf-syntax-ns#"
   xmlns:svg="http://www.w3.org/2000/svg"
   xmlns="http://www.w3.org/2000/svg"
   xmlns:xlink="http://www.w3.org/1999/xlink"
   xmlns:sodipodi="http://sodipodi.sourceforge.net/DTD/sodipodi-0.dtd"
   xmlns:inkscape="http://www.inkscape.org/namespaces/inkscape"
   width="199.07104mm"
   height="168.18559mm"
   viewBox="0 0 199.07104 168.18559"
   version="1.1"
   id="svg8"
   sodipodi:docname="cam-view.svg"
   inkscape:version="0.92.3 (2405546, 2018-03-11)">
  <defs
     id="defs2">
    <linearGradient
       inkscape:collect="always"
       id="linearGradient2703">
      <stop
         style="stop-color:#666666;stop-opacity:1"
         offset="0"
         id="stop2699" />
      <stop
         style="stop-color:#333333;stop-opacity:1"
         offset="1"
         id="stop2701" />
    </linearGradient>
    <marker
       inkscape:stockid="TriangleOutL"
       orient="auto"
       refY="0"
       refX="0"
       id="TriangleOutL"
       style="overflow:visible"
       inkscape:isstock="true">
      <path
         id="path974"
         d="M 5.77,0 -2.88,5 V -5 Z"
         style="fill:#000000;fill-opacity:1;fill-rule:evenodd;stroke:#000000;stroke-width:1.00000003pt;stroke-opacity:1"
         transform="scale(0.8)"
         inkscape:connector-curvature="0" />
    </marker>
    <marker
       inkscape:stockid="TriangleInL"
       orient="auto"
       refY="0"
       refX="0"
       id="TriangleInL"
       style="overflow:visible"
       inkscape:isstock="true">
      <path
         id="path965"
         d="M 5.77,0 -2.88,5 V -5 Z"
         style="fill:#000000;fill-opacity:1;fill-rule:evenodd;stroke:#000000;stroke-width:1.00000003pt;stroke-opacity:1"
         transform="scale(-0.8)"
         inkscape:connector-curvature="0" />
    </marker>
    <linearGradient
       inkscape:collect="always"
       xlink:href="#linearGradient2703"
       id="linearGradient2705"
       x1="-417.47501"
       y1="102.96233"
       x2="-296.66919"
       y2="-1.8073326"
       gradientUnits="userSpaceOnUse" />
  </defs>
  <sodipodi:namedview
     id="base"
     pagecolor="#ffffff"
     bordercolor="#666666"
     borderopacity="1.0"
     inkscape:pageopacity="0.0"
     inkscape:pageshadow="2"
     inkscape:zoom="0.175"
     inkscape:cx="2283.0321"
     inkscape:cy="673.83066"
     inkscape:document-units="mm"
     inkscape:current-layer="layer1"
     showgrid="false"
     inkscape:window-width="1877"
     inkscape:window-height="1025"
     inkscape:window-x="1963"
     inkscape:window-y="27"
     inkscape:window-maximized="1"
     inkscape:snap-global="false"
     fit-margin-top="0"
     fit-margin-left="0"
     fit-margin-right="0"
     fit-margin-bottom="0" />
  <metadata
     id="metadata5">
    <rdf:RDF>
      <cc:Work
         rdf:about="">
        <dc:format>image/svg+xml</dc:format>
        <dc:type
           rdf:resource="http://purl.org/dc/dcmitype/StillImage" />
        <dc:title></dc:title>
      </cc:Work>
    </rdf:RDF>
  </metadata>
  <g
     inkscape:label="Layer 1"
     inkscape:groupmode="layer"
     id="layer1"
     transform="translate(456.87458,49.626729)">
    <path
       style="color:#000000;font-style:normal;font-variant:normal;font-weight:normal;font-stretch:normal;font-size:medium;line-height:normal;font-family:sans-serif;font-variant-ligatures:normal;font-variant-position:normal;font-variant-caps:normal;font-variant-numeric:normal;font-variant-alternates:normal;font-feature-settings:normal;text-indent:0;text-align:start;text-decoration:none;text-decoration-line:none;text-decoration-style:solid;text-decoration-color:#000000;letter-spacing:normal;word-spacing:normal;text-transform:none;writing-mode:lr-tb;direction:ltr;text-orientation:mixed;dominant-baseline:auto;baseline-shift:baseline;text-anchor:start;white-space:normal;shape-padding:0;clip-rule:nonzero;display:inline;overflow:visible;visibility:visible;opacity:1;isolation:auto;mix-blend-mode:normal;color-interpolation:sRGB;color-interpolation-filters:linearRGB;solid-color:#000000;solid-opacity:1;vector-effect:none;fill:url(#linearGradient2705);fill-opacity:1;fill-rule:nonzero;stroke:none;stroke-width:20;stroke-linecap:round;stroke-linejoin:round;stroke-miterlimit:4;stroke-dasharray:none;stroke-dashoffset:0;stroke-opacity:1;color-rendering:auto;image-rendering:auto;shape-rendering:auto;text-rendering:auto;enable-background:accumulate"
       d="m -333.81956,-49.626729 c -22.27591,0 -40.91605,16.48325 -44.32132,37.845234 l -10.09654,2.7052613 c -6.34543,-11.0954053 -18.307,-18.6329713 -31.9102,-18.6329703 -20.16529,0 -36.72696,16.561673 -36.72696,36.7269547 0,16.1228543 10.5878,29.9399853 25.13904,34.8324993 v 19.315101 h -6.6797 l -3.45147,-3.530018 -4.61057,-4.714956 a 3.757032,6.6555201 0 0 0 -1.78955,-0.889352 3.757032,6.6555201 0 0 0 -3.84525,6.652823 v 9.430433 9.431464 a 3.757032,6.6555201 0 0 0 5.6348,5.761924 l 4.61057,-4.714957 3.45147,-3.529502 h 6.6797 v 38.99555 c 1.4e-4,1.38065 1.11894,2.49997 2.49959,2.50011 h 138.17967 c 1.38065,-1.4e-4 2.49997,-1.11946 2.50011,-2.50011 V 79.067738 h 9.83403 c 0.773,0.712005 1.57575,1.438323 2.44015,2.195732 l 12.84367,13.134602 c 2.50422,2.55954 5.63386,-0.64134 5.63479,-5.76296 V 62.362817 36.093619 c -4e-4,-3.735983 -1.73634,-6.739398 -3.84472,-6.652308 -0.62932,0.02626 -1.24491,0.332312 -1.79007,0.889868 l -12.84367,13.134599 c -0.19625,0.200705 -0.38136,0.392242 -0.5736,0.58963 h -11.70058 v -9.51415 c -1.4e-4,-1.380654 -1.11946,-2.499968 -2.50011,-2.500106 h -17.15657 c 11.62501,-8.134792 19.27221,-21.617836 19.27221,-36.7889678 0,-24.6673582 -20.21157,-44.8789132 -44.87892,-44.8789132 z m 0,19.999812 c 13.85855,0 24.87859,11.020545 24.87859,24.8791012 0,13.8585545 -11.02004,24.8785858 -24.87859,24.8785858 -13.85856,0 -24.8791,-11.0200313 -24.8791,-24.8785858 0,-13.8585562 11.02054,-24.8791012 24.8791,-24.8791012 z m -0.0491,6.216675 -1.82004,0.09198 -0.0997,0.0098 -1.76372,0.26355 -0.0977,0.01964 -0.38086,0.09767 -0.67748,0.586011 0.0625,0.894518 0.75551,0.484208 0.35192,-0.02532 0.33589,-0.08578 1.66192,-0.250113 1.7694,-0.08785 0.78135,-0.439767 0.11317,-0.890385 -0.64234,-0.623218 z m 3.27525,0.289388 -0.85111,0.279053 -0.28732,0.847493 0.50798,0.738456 0.33383,0.113171 0.45527,0.06873 1.6092,0.407728 1.57613,0.572575 0.0134,-0.03927 0.7953,-0.01344 0.52348,-0.728638 -0.26975,-0.853695 -0.28732,-0.206705 -0.004,-0.0021 -0.0899,-0.03721 -1.62678,-0.589628 -0.0961,-0.02945 -1.69912,-0.431499 -0.0977,-0.01964 z m -11.04842,1.48208 -0.34003,0.09405 -0.7245,0.347265 -0.0858,0.04496 -1.45727,0.881083 -0.0801,0.05271 -1.19941,0.89452 -0.40204,0.800984 0.40049,0.800468 0.88057,0.160197 0.31626,-0.15813 1.15445,-0.861446 1.37511,-0.829923 0.68368,-0.328146 0.55087,-0.706933 -0.23823,-0.863514 z m 17.92345,1.617472 -0.65422,0.611332 0.0997,0.890385 0.24029,0.257866 0.84388,0.626835 1.18339,1.072286 0.77721,0.859379 0.83613,0.324528 0.75964,-0.476974 0.0724,-0.892452 -0.18759,-0.298689 -0.81028,-0.89452 -0.0687,-0.06821 -1.25161,-1.134814 -0.0744,-0.06253 -0.8847,-0.658358 z m -23.66573,3.403926 -0.89091,0.09974 -0.25579,0.242363 -0.75965,1.017509 -0.0527,0.0801 -0.88108,1.456758 -0.0444,0.0863 -0.44545,0.927592 0.0176,0.896586 0.72864,0.523483 0.85317,-0.271819 0.20516,-0.284737 0.42581,-0.888834 0.82993,-1.37511 0.72657,-0.972551 0.15658,-0.882633 z m 29.35945,2.542998 -0.86352,0.238228 -0.32608,0.834058 0.0935,0.340031 0.66249,1.384928 0.55655,1.5347901 0.15607,0.6154661 0.58601,0.677478 0.89245,-0.062528 0.48421,-0.7534423 -0.0253,-0.3519165 -0.16588,-0.6599084 -0.0295,-0.09405 -0.58963,-1.626774 -0.0372,-0.09198 -0.68524,-1.433504 z m -33.10031,4.580082 -0.78445,0.4320148 -0.14469,0.3219442 -0.0429,0.162264 -0.0196,0.097669 -0.26355,1.7637165 -0.0103,0.099736 -0.0915,1.8200439 v 0.097668 l 0.0114,0.2268596 0.44184,0.7808315 0.88832,0.1136888 0.62322,-0.644923 0.045,-0.3493328 -0.0103,-0.1777669 0.0863,-1.7187582 0.25011,-1.6639809 0.0289,-0.1152385 -0.1912,-0.8753988 z m -69.02266,1.7854205 c 9.35648,0 16.72611,7.3701452 16.72611,16.7266262 0,9.3564873 -7.36963,16.7266273 -16.72611,16.7266273 -9.35648,0 -16.72663,-7.37014 -16.72663,-16.7266273 0,-9.356481 7.37015,-16.7266262 16.72663,-16.7266262 z m 103.62675,1.3399701 -0.62322,0.6423379 -0.045,0.3498496 0.0315,0.6289021 -0.0863,1.7203073 -0.21446,1.4340232 0.27699,0.851109 0.848,0.287322 0.73794,-0.507979 0.11369,-0.33383 0.22221,-1.4825983 0.0103,-0.099219 0.0915,-1.8205598 v -0.097668 l -0.0346,-0.6795453 -0.43977,-0.7792804 z m -101.75968,1.5347899 -0.85163,0.2795694 -0.28732,0.8474924 0.51005,0.7384573 0.33383,0.1131703 0.87488,0.1286748 1.1622,0.2950739 1.09554,0.3948061 0.41031,0.195339 0.89659,-0.01757 0.52141,-0.7286386 -0.2713,-0.853694 -0.28732,-0.2051552 -0.45113,-0.2165245 -0.092,-0.037206 -1.19682,-0.4314994 -0.0941,-0.029456 -1.25212,-0.3147095 -0.0972,-0.01912 z m -5.80068,0.4588867 -0.34778,0.060978 -1.15032,0.4139295 -0.092,0.037206 -1.13689,0.5410518 -0.0858,0.046508 -1.07022,0.6449219 -0.0801,0.054261 -0.21497,0.1601972 -0.40411,0.8009841 0.40049,0.800986 0.88057,0.159679 0.31626,-0.158129 0.18965,-0.14056 0.96687,-0.57981 1.05678,-0.503846 1.10123,-0.396875 0.61908,-0.6480202 -0.15038,-0.8852191 z m 12.59561,2.8654575 -0.71107,0.546738 0.0134,0.896585 0.21498,0.27957 0.32814,0.296621 0.77928,0.857314 0.68368,0.923975 0.49403,0.820105 0.75602,0.480589 0.83768,-0.320394 0.24443,-0.860928 -0.12506,-0.330213 -0.52917,-0.879015 -0.0548,-0.0801 -0.74208,-0.99787 -0.0625,-0.07441 -0.83199,-0.919843 -0.0687,-0.06821 -0.36329,-0.330211 z m 60.89448,0.02325 -0.89452,0.0646 -0.48266,0.753959 0.0253,0.351401 0.2775,1.097608 0.0295,0.09612 0.58963,1.626772 0.0372,0.08992 0.49042,1.02526 0.70899,0.548804 0.863,-0.236162 0.32608,-0.836125 -0.0935,-0.339514 -0.46664,-0.974619 -0.55656,-1.535305 -0.26768,-1.054717 z m -79.58584,1.705325 -0.8909,0.09973 -0.2558,0.241845 -0.41806,0.560689 -0.0548,0.0801 -0.64441,1.070219 -0.047,0.0863 -0.54105,1.136364 -0.0367,0.09198 -0.26975,0.746207 0.10749,0.888318 0.77515,0.447518 0.82424,-0.353467 0.17621,-0.30489 0.2496,-0.697116 0.50385,-1.056783 0.58032,-0.964798 0.39843,-0.536919 0.15606,-0.88315 z m 112.70113,1.164269 -0.8537,0.271302 -0.20515,0.285252 -0.62115,1.296562 -0.82993,1.375111 -0.45527,0.609264 -0.15812,0.88315 0.61339,0.654224 0.89039,-0.09973 0.25786,-0.242364 0.48835,-0.654225 0.0527,-0.0801 0.88108,-1.456759 0.045,-0.0863 0.64027,-1.335836 -0.0176,-0.896586 z m -89.57438,4.023008 -0.89452,0.06253 -0.4842,0.751893 0.0212,0.300758 h -0.004 l 0.008,0.05116 0.17776,1.20096 0.0625,1.244367 -0.0625,1.2417853 0.36122,0.820624 0.87333,0.201019 0.68316,-0.578257 0.0801,-0.343649 0.0625,-1.2929443 v -0.09767 l -0.0641,-1.343588 -0.0103,-0.09767 -0.19534,-1.300694 -0.0191,-0.09767 -0.0103,-0.04496 z m 59.49818,0.142629 -0.75965,0.474906 -0.0723,0.892453 0.18707,0.298688 1.11569,1.230416 0.0682,0.06873 1.25212,1.134298 0.0739,0.06253 0.52142,0.3870563 0.88108,0.158128 0.65422,-0.6133993 -0.0997,-0.890384 -0.2403,-0.257866 -0.48007,-0.3576 -1.18391,-1.070221 -1.0821,-1.195274 z m -85.79477,2.066539 -0.68367,0.580327 -0.0801,0.341582 -0.0196,0.431498 v 0.09767 l 0.0646,1.3441043 0.01,0.09767 0.19533,1.300695 0.0196,0.09767 0.22066,0.880568 0.58549,0.679545 0.89504,-0.06201 0.48421,-0.753959 -0.0253,-0.351917 -0.21135,-0.834057 -0.17725,-1.203026 -0.0625,-1.2438543 0.0191,-0.380854 -0.36122,-0.820621 z m 110.61289,0.19327 -0.29869,0.187587 -0.15606,0.142626 -1.27176,0.94723 -1.37511,0.829924 -0.27543,0.1328073 -0.54881,0.706933 0.23668,0.863515 0.83561,0.328144 0.34003,-0.09353 0.31419,-0.152445 0.0863,-0.04496 1.45676,-0.881084 0.0801,-0.05271 1.35754,-1.0118223 0.0744,-0.06201 0.18914,-0.172082 0.32453,-0.836126 -0.47698,-0.757576 z m -17.97874,2.6308483 -0.89401,0.0155 -0.52348,0.728636 0.26923,0.853694 0.28732,0.206706 0.41187,0.197406 0.092,0.03721 1.62677,0.589629 0.0941,0.02946 1.69913,0.431498 0.0977,0.01964 0.0584,0.0078 0.85163,-0.276984 0.28732,-0.849562 -0.50798,-0.738457 -0.29507,-0.09973 v -0.0021 l -0.0176,-0.0036 -0.0212,-0.0078 -0.016,-0.0021 -1.60145,-0.406177 -1.53531,-0.557073 z m 11.40291,0.916223 -0.35191,0.02532 -0.77308,0.197403 -1.6645,0.249597 -1.31826,0.0646 -0.77928,0.441318 -0.11524,0.888833 0.6444,0.623218 0.34985,0.04496 1.36736,-0.06873 0.0992,-0.0098 1.76372,-0.263551 0.0977,-0.01964 0.82062,-0.208775 0.67748,-0.58601 -0.0646,-0.894519 z m -78.73472,1.829863 -0.85318,0.271817 -0.20516,0.286806 -0.49402,1.035076 -0.58033,0.964801 -0.69143,0.933794 -0.18345,0.20102 -0.24236,0.863512 0.54673,0.709002 0.89659,-0.01395 0.27957,-0.214458 0.21291,-0.234611 0.0625,-0.07597 0.74208,-0.998389 0.0548,-0.0801 0.64441,-1.070219 0.047,-0.08578 0.50954,-1.074354 -0.0176,-0.896585 z m -22.87871,1.998327 -0.83819,0.318328 -0.24391,0.862996 0.12505,0.328145 0.0837,0.14056 0.0548,0.0801 0.74259,0.998389 0.062,0.07597 0.83251,0.917773 0.0682,0.06873 0.91984,0.834057 0.0744,0.06046 0.0894,0.06821 0.88315,0.156062 0.65423,-0.612881 -0.1018,-0.890902 -0.2403,-0.257866 -0.0444,-0.03307 -0.84388,-0.763778 -0.77721,-0.857311 -0.6935,-0.931728 -0.0506,-0.08371 z m 17.37878,3.949112 -0.32814,0.127125 -0.51367,0.308509 -1.05678,0.503843 -1.09554,0.394293 -0.7462,0.189653 -0.67955,0.583944 0.0625,0.894519 0.75396,0.484206 0.3514,-0.02325 0.7891,-0.19947 0.0935,-0.02894 1.19734,-0.432014 0.092,-0.03669 1.13688,-0.541052 0.0858,-0.04703 0.56069,-0.337963 0.47852,-0.757576 -0.31832,-0.836125 z m 42.00778,0.343133 c 3.18601,4.9285 7.30704,9.20428 12.10985,12.565123 h -32.18615 c 2.10221,-2.595599 3.85956,-5.479486 5.20123,-8.579321 z m -53.02519,0.701765 -0.8909,0.105421 -0.447,0.775147 0.35553,0.824238 0.30437,0.176217 0.85732,0.308507 0.094,0.02894 1.25212,0.316775 0.0972,0.01964 1.30121,0.19327 0.0972,0.0098 0.48266,0.02325 0.82011,-0.361217 0.20154,-0.873334 -0.58033,-0.683162 -0.34365,-0.0801 -0.43356,-0.0217 -1.20148,-0.177769 -1.16169,-0.295071 z m 121.34453,81.04725 a 4.4099469,4.4099469 0 0 1 4.41007,4.41007 4.4099469,4.4099469 0 0 1 -4.41007,4.41006 4.4099469,4.4099469 0 0 1 -4.41007,-4.41006 4.4099469,4.4099469 0 0 1 4.41007,-4.41007 z"
       id="path826"
       inkscape:connector-curvature="0" />
    <g
       id="g2670">
      <path
         style="color:#000000;font-style:normal;font-variant:normal;font-weight:normal;font-stretch:normal;font-size:medium;line-height:normal;font-family:sans-serif;font-variant-ligatures:normal;font-variant-position:normal;font-variant-caps:normal;font-variant-numeric:normal;font-variant-alternates:normal;font-feature-settings:normal;text-indent:0;text-align:start;text-decoration:none;text-decoration-line:none;text-decoration-style:solid;text-decoration-color:#000000;letter-spacing:normal;word-spacing:normal;text-transform:none;writing-mode:lr-tb;direction:ltr;text-orientation:mixed;dominant-baseline:auto;baseline-shift:baseline;text-anchor:start;white-space:normal;shape-padding:0;clip-rule:nonzero;display:inline;overflow:visible;visibility:visible;opacity:1;isolation:auto;mix-blend-mode:normal;color-interpolation:sRGB;color-interpolation-filters:linearRGB;solid-color:#000000;solid-opacity:1;vector-effect:none;fill:#ffff00;fill-opacity:1;fill-rule:evenodd;stroke:none;stroke-width:15.11811018pt;stroke-linecap:butt;stroke-linejoin:round;stroke-miterlimit:4;stroke-dasharray:none;stroke-dashoffset:0;stroke-opacity:1;color-rendering:auto;image-rendering:auto;shape-rendering:auto;text-rendering:auto;enable-background:accumulate"
         d="m -1351.4316,185.4043 c -7.7598,-0.002 -12.6112,8.39637 -8.7325,15.11718 l 26.1797,45.34375 -101.3457,58.46094 -26.1582,-45.31055 c -1.7161,-2.97109 -4.8266,-4.86549 -8.2539,-5.02734 -3.7688,-0.17692 -7.3207,1.76646 -9.2051,5.03516 l -75.457,130.85156 c -3.8685,6.71633 0.9738,15.10238 8.7246,15.10938 l 151.0488,0.082 c 7.7598,0.002 12.6112,-8.39636 8.7325,-15.11719 l -26.5664,-46.01953 101.3457,-58.46094 26.5449,45.97852 c 3.8798,6.71929 13.5792,6.71929 17.459,0 l 75.457,-130.85157 c 3.8771,-6.71798 -0.9701,-15.11544 -8.7266,-15.11914 z"
         transform="scale(0.26458333)"
         id="path2676"
         inkscape:connector-curvature="0" />
    </g>
  </g>
</svg>
