<?xml version="1.0" encoding="UTF-8" standalone="no"?>
<!-- Created with Inkscape (http://www.inkscape.org/) -->

<svg
   xmlns:dc="http://purl.org/dc/elements/1.1/"
   xmlns:cc="http://creativecommons.org/ns#"
   xmlns:rdf="http://www.w3.org/1999/02/22-rdf-syntax-ns#"
   xmlns:svg="http://www.w3.org/2000/svg"
   xmlns="http://www.w3.org/2000/svg"
   xmlns:sodipodi="http://sodipodi.sourceforge.net/DTD/sodipodi-0.dtd"
   xmlns:inkscape="http://www.inkscape.org/namespaces/inkscape"
   width="22.577778mm"
   height="22.577778mm"
   viewBox="0 0 79.999995 80"
   id="svg2"
   version="1.1"
   inkscape:version="0.91 r13725"
   sodipodi:docname="pos_report_bar2.svg">
  <sodipodi:namedview
     id="base"
     pagecolor="#ffffff"
     bordercolor="#666666"
     borderopacity="1.0"
     inkscape:pageopacity="0.0"
     inkscape:pageshadow="2"
     inkscape:zoom="1.0736381"
     inkscape:cx="173.58535"
     inkscape:cy="141.27876"
     inkscape:document-units="px"
     inkscape:current-layer="layer1"
     showgrid="true"
     inkscape:snap-bbox="true"
     inkscape:bbox-paths="true"
     inkscape:snap-intersection-paths="false"
     inkscape:object-nodes="true"
     inkscape:window-width="1319"
     inkscape:window-height="744"
     inkscape:window-x="47"
     inkscape:window-y="24"
     inkscape:window-maximized="1"
     fit-margin-top="0"
     fit-margin-left="0"
     fit-margin-right="0"
     fit-margin-bottom="0">
    <inkscape:grid
       spacingy="20"
       spacingx="20"
       empspacing="4"
       id="grid4136"
       type="xygrid"
       originx="-79.999995"
       originy="-719.99997" />
  </sodipodi:namedview>
  <defs
     id="defs4" />
  <metadata
     id="metadata7">
    <rdf:RDF>
      <cc:Work
         rdf:about="">
        <dc:format>image/svg+xml</dc:format>
        <dc:type
           rdf:resource="http://purl.org/dc/dcmitype/StillImage" />
        <dc:title></dc:title>
      </cc:Work>
    </rdf:RDF>
  </metadata>
  <g
     id="layer1"
     inkscape:groupmode="layer"
     inkscape:label="Layer 1"
     transform="translate(-80,-252.36223)">
    <g
       id="g4402"
       transform="translate(-24.457319,1.00065)">
      <path
         sodipodi:nodetypes="cccccccccccccccccccccccccccc"
         inkscape:connector-curvature="0"
         id="rect4144"
         d="m 124.45732,251.36068 0,5.78515 2.30469,4.21485 52.69531,0 c 4.44865,0 5,-10 5,-10 z m 6.4043,17.5 5.46484,10 34.38086,0 c 3.9585,0 5,-10 5,-10 z m 9.375,17.5 c 1.04832,3.81684 -1.82111,7.58521 -5.7793,7.58984 l -4,0 0,2.41016 31.5,0 c 4.42421,0 5,-10 5,-10 z m -9.7793,17.5 0,10 22.75,0 c 4.66288,0 5,-10 5,-10 z m 0,17.5 0,10 14,0 c 4.91204,0 5,-10 5,-10 z"
         style="opacity:1;fill:#e6e6e6;fill-opacity:1;stroke:none;stroke-width:5;stroke-linecap:round;stroke-linejoin:round;stroke-miterlimit:4;stroke-dasharray:none;stroke-dashoffset:0;stroke-opacity:1" />
      <path
         style="fill:#e6e6e6;fill-rule:evenodd;stroke:none;stroke-width:5;stroke-linecap:butt;stroke-linejoin:round;stroke-miterlimit:4;stroke-dasharray:none;stroke-opacity:1"
         d="m 104.45732,331.36155 20.00025,0 0,-43.41008 10.00009,0 -20.00018,-36.58994 -10.00016,19.099"
         id="path4339"
         inkscape:connector-curvature="0"
         sodipodi:nodetypes="cccccc" />
    </g>
  </g>
</svg>
