<?xml version="1.0" encoding="UTF-8" standalone="no"?>
<!-- Created with Inkscape (http://www.inkscape.org/) -->

<svg
   xmlns:dc="http://purl.org/dc/elements/1.1/"
   xmlns:cc="http://creativecommons.org/ns#"
   xmlns:rdf="http://www.w3.org/1999/02/22-rdf-syntax-ns#"
   xmlns:svg="http://www.w3.org/2000/svg"
   xmlns="http://www.w3.org/2000/svg"
   xmlns:sodipodi="http://sodipodi.sourceforge.net/DTD/sodipodi-0.dtd"
   xmlns:inkscape="http://www.inkscape.org/namespaces/inkscape"
   width="22.577778mm"
   height="22.577778mm"
   viewBox="0 0 79.999995 80"
   id="svg2"
   version="1.1"
   inkscape:version="0.91 r13725"
   sodipodi:docname="pos_report_bar3.svg">
  <sodipodi:namedview
     id="base"
     pagecolor="#ffffff"
     bordercolor="#666666"
     borderopacity="1.0"
     inkscape:pageopacity="0.0"
     inkscape:pageshadow="2"
     inkscape:zoom="1.0736381"
     inkscape:cx="173.58535"
     inkscape:cy="141.27876"
     inkscape:document-units="px"
     inkscape:current-layer="layer1"
     showgrid="true"
     inkscape:snap-bbox="true"
     inkscape:bbox-paths="true"
     inkscape:snap-intersection-paths="false"
     inkscape:object-nodes="true"
     inkscape:window-width="1319"
     inkscape:window-height="744"
     inkscape:window-x="47"
     inkscape:window-y="24"
     inkscape:window-maximized="1"
     fit-margin-top="0"
     fit-margin-left="0"
     fit-margin-right="0"
     fit-margin-bottom="0">
    <inkscape:grid
       spacingy="20"
       spacingx="20"
       empspacing="4"
       id="grid4136"
       type="xygrid"
       originx="-79.999995"
       originy="-719.99997" />
  </sodipodi:namedview>
  <defs
     id="defs4" />
  <metadata
     id="metadata7">
    <rdf:RDF>
      <cc:Work
         rdf:about="">
        <dc:format>image/svg+xml</dc:format>
        <dc:type
           rdf:resource="http://purl.org/dc/dcmitype/StillImage" />
        <dc:title></dc:title>
      </cc:Work>
    </rdf:RDF>
  </metadata>
  <g
     id="layer1"
     inkscape:groupmode="layer"
     inkscape:label="Layer 1"
     transform="translate(-80,-252.36223)">
    <path
       style="fill:#e6e6e6"
       d="m 118.54868,331.89585 c -0.95718,-0.25359 -8.56855,-3.54425 -16.91418,-7.31256 -14.478898,-6.53769 -15.264528,-6.93576 -17.153568,-8.69175 -2.21817,-2.06194 -3.64453,-4.55362 -4.23702,-7.4016 -0.41057,-1.97352 -0.27525,-7.82592 0.19996,-8.64788 0.25247,-0.43669 2.66706,0.45128 17.69559,6.50757 l 17.403208,7.01326 0.38448,3.28959 c 0.49307,4.21868 1.73702,6.88412 3.88722,8.32926 1.22204,0.82132 1.77415,0.97322 3.89464,1.07152 2.26137,0.10484 2.64499,0.0289 4.52684,-0.89553 4.86496,-2.38995 8.02334,-9.02085 17.89995,-37.58033 5.16199,-14.92658 6.96199,-20.60812 6.59972,-20.83153 -0.37949,-0.23405 -39.59898,-7.98147 -39.70997,-7.84432 -0.0446,0.0551 -3.24237,8.76762 -7.10616,19.36113 -3.8638,10.59352 -7.229448,19.57399 -7.479228,19.95662 -0.25798,0.39521 -0.93578,0.78586 -1.56927,0.90444 -2.48081,0.46443 -4.26406,-1.39456 -3.60893,-3.7622 0.83299,-3.01047 15.171048,-41.68872 15.649688,-42.21648 0.30122,-0.33215 0.9909,-0.68212 1.5326,-0.77772 0.62264,-0.1099 9.65002,1.55797 24.54201,4.53428 22.42502,4.48186 23.59207,4.74872 24.2854,5.55306 0.46631,0.54097 0.72833,1.25087 0.72833,1.97325 0,1.92011 -11.9908,37.06896 -16.51466,48.4097 -5.10641,12.80112 -9.21952,17.61349 -16.34165,19.11981 -2.6588,0.56234 -6.33961,0.53596 -8.595,-0.0616 z m 2.53137,-26.16137 c -7.81503,-2.57413 -8.54339,-3.00852 -8.54339,-5.09524 0,-1.39295 1.42972,-2.95775 2.70245,-2.95775 0.46893,0 4.18985,1.07507 8.26871,2.38905 6.8839,2.2176 7.46137,2.46119 8.0467,3.39434 1.25697,2.00391 -0.084,4.64995 -2.34424,4.62554 -0.5559,-0.006 -4.2145,-1.06618 -8.13023,-2.35594 z m -14.86682,-5.55759 c -3.24392,-0.69329 -3.35616,-5.2339 -0.14423,-5.83519 2.16796,-0.40585 3.93628,0.95266 3.93628,3.02404 0,2.09533 -1.5981,3.28005 -3.79205,2.81115 z m 19.80251,-7.04852 c -7.32284,-2.41267 -8.41633,-3.03167 -8.41633,-4.76434 0,-1.67735 1.47223,-3.31266 2.98231,-3.31266 0.49219,0 11.01166,3.36048 14.0299,4.48189 2.60027,0.96612 3.36579,3.09391 1.78679,4.96647 -1.20005,1.42317 -2.36981,1.26867 -10.38267,-1.37136 z m -15.62678,-5.07943 c -0.68479,-0.2969 -1.20326,-0.84041 -1.51742,-1.59071 -0.43593,-1.04114 -0.42806,-1.24003 0.091,-2.29949 1.07782,-2.20013 3.71576,-2.52452 5.29541,-0.65117 1.35339,1.60501 0.9104,3.69533 -0.98849,4.66438 -0.90049,0.45953 -1.60635,0.4294 -2.88045,-0.12301 z m 22.0823,-7.74151 c -3.7417,-1.02146 -7.26142,-2.09701 -7.82161,-2.3901 -1.37807,-0.721 -1.87119,-2.19662 -1.2388,-3.70694 0.52171,-1.24599 1.32181,-1.78957 2.63205,-1.78821 1.0192,9.4e-4 14.21531,3.53089 15.23407,4.07496 1.2593,0.67253 1.74528,2.75038 0.97791,4.18118 -0.30717,0.57275 -2.1059,1.56575 -2.73306,1.50881 -0.13611,-0.0124 -3.30886,-0.85822 -7.05056,-1.8797 z m -17.24502,-5.09514 c -1.88576,-1.03484 -2.3286,-3.38089 -0.90611,-4.80037 1.68293,-1.67938 5.42289,-0.70448 5.53067,1.44169 0.0763,1.51986 -0.0982,2.01478 -1.00739,2.85685 -1.00494,0.93072 -2.46619,1.13345 -3.61717,0.50183 z"
       id="path4355"
       inkscape:connector-curvature="0" />
  </g>
</svg>
