<?xml version="1.0" encoding="UTF-8" standalone="no"?>
<!-- Created with Inkscape (http://www.inkscape.org/) -->

<svg
   xmlns:dc="http://purl.org/dc/elements/1.1/"
   xmlns:cc="http://creativecommons.org/ns#"
   xmlns:rdf="http://www.w3.org/1999/02/22-rdf-syntax-ns#"
   xmlns:svg="http://www.w3.org/2000/svg"
   xmlns="http://www.w3.org/2000/svg"
   xmlns:sodipodi="http://sodipodi.sourceforge.net/DTD/sodipodi-0.dtd"
   xmlns:inkscape="http://www.inkscape.org/namespaces/inkscape"
   width="100mm"
   height="100mm"
   viewBox="0 0 100 100"
   version="1.1"
   id="svg1401"
   inkscape:version="0.92.3 (2405546, 2018-03-11)"
   sodipodi:docname="timing.svg">
  <defs
     id="defs1395" />
  <sodipodi:namedview
     id="base"
     pagecolor="#ffffff"
     bordercolor="#666666"
     borderopacity="1.0"
     inkscape:pageopacity="0.0"
     inkscape:pageshadow="2"
     inkscape:zoom="0.35"
     inkscape:cx="577.82886"
     inkscape:cy="457.42414"
     inkscape:document-units="mm"
     inkscape:current-layer="layer1"
     showgrid="false"
     fit-margin-top="0"
     fit-margin-left="0"
     fit-margin-right="0"
     fit-margin-bottom="0"
     inkscape:window-width="1869"
     inkscape:window-height="1025"
     inkscape:window-x="51"
     inkscape:window-y="27"
     inkscape:window-maximized="1"
     borderlayer="true"
     showguides="false"
     inkscape:guide-bbox="true">
    <sodipodi:guide
       position="25.891369,18.520833"
       orientation="0,1"
       id="guide2512"
       inkscape:locked="false" />
    <sodipodi:guide
       position="60.068826,28.0633"
       orientation="0,1"
       id="guide2529"
       inkscape:locked="false" />
  </sodipodi:namedview>
  <metadata
     id="metadata1398">
    <rdf:RDF>
      <cc:Work
         rdf:about="">
        <dc:format>image/svg+xml</dc:format>
        <dc:type
           rdf:resource="http://purl.org/dc/dcmitype/StillImage" />
        <dc:title></dc:title>
      </cc:Work>
    </rdf:RDF>
  </metadata>
  <g
     inkscape:label="Layer 1"
     inkscape:groupmode="layer"
     id="layer1"
     transform="translate(-164.39761,90.290959)">
    <path
       style="opacity:1;fill:#4d4d4d;fill-opacity:1;stroke:none;stroke-width:37.79527664;stroke-linecap:butt;stroke-linejoin:round;stroke-miterlimit:4;stroke-dasharray:none;stroke-dashoffset:0;stroke-opacity:1"
       d="m 111.16406,80.490234 c 6.71339,6.471485 14.98864,13.809407 24.23242,22.119146 22.29287,20.04029 51.15516,45.4645 52.97266,82.69921 h 1.21289 c 1.81754,-37.23471 30.67976,-62.65891 52.97266,-82.69921 9.24378,-8.309765 17.51903,-15.647665 24.23242,-22.119146 0,0 -39.91961,13.999996 -77.81153,13.999996 -37.89192,0 -77.81152,-13.999996 -77.81152,-13.999996 z"
       transform="matrix(0.26458333,0,0,0.26458333,164.39761,-90.290959)"
       id="rect2504"
       inkscape:connector-curvature="0"
       sodipodi:nodetypes="cscccczc" />
    <g
       id="g2496"
       transform="translate(1.5e-4)"
       style="fill:#4d4d4d;fill-opacity:1">
      <path
         style="color:#000000;font-style:normal;font-variant:normal;font-weight:normal;font-stretch:normal;font-size:medium;line-height:normal;font-family:sans-serif;font-variant-ligatures:normal;font-variant-position:normal;font-variant-caps:normal;font-variant-numeric:normal;font-variant-alternates:normal;font-feature-settings:normal;text-indent:0;text-align:start;text-decoration:none;text-decoration-line:none;text-decoration-style:solid;text-decoration-color:#000000;letter-spacing:normal;word-spacing:normal;text-transform:none;writing-mode:lr-tb;direction:ltr;text-orientation:mixed;dominant-baseline:auto;baseline-shift:baseline;text-anchor:start;white-space:normal;shape-padding:0;clip-rule:nonzero;display:inline;overflow:visible;visibility:visible;opacity:1;isolation:auto;mix-blend-mode:normal;color-interpolation:sRGB;color-interpolation-filters:linearRGB;solid-color:#000000;solid-opacity:1;vector-effect:none;fill:#4d4d4d;fill-opacity:1;fill-rule:nonzero;stroke:none;stroke-width:11.33858299;stroke-linecap:butt;stroke-linejoin:miter;stroke-miterlimit:4;stroke-dasharray:none;stroke-dashoffset:0;stroke-opacity:1;color-rendering:auto;image-rendering:auto;shape-rendering:auto;text-rendering:auto;enable-background:accumulate"
         d="m 68.308594,41.578125 v 25.677734 c 0,10.520674 6.828072,19.668555 15.613281,28.966797 8.785247,9.298244 20.094995,18.840534 31.261715,28.878904 22.33338,20.07674 43.125,42.01553 43.125,63.875 0,21.85947 -20.79162,43.79826 -43.125,63.875 -11.16672,10.03837 -22.476468,19.58067 -31.261715,28.87891 -8.785209,9.29824 -15.613281,18.44417 -15.613281,28.96484 V 336.375 h 11.33789 v -25.67969 c 0,-5.06411 4.423896,-12.61556 12.513672,-21.17773 8.089774,-8.56218 19.270184,-18.04039 30.603514,-28.22852 22.66658,-20.37627 46.88281,-43.71191 46.88281,-72.3125 0,-28.60059 -24.21623,-51.93623 -46.88281,-72.3125 C 111.43034,106.47593 100.24993,96.997723 92.160156,88.435547 84.07038,79.873371 79.646484,72.319969 79.646484,67.255859 V 41.578125 Z m 229.998046,0 v 25.677734 c 0,5.06411 -4.42389,12.617512 -12.51367,21.179688 -8.08978,8.562176 -19.27218,18.040383 -30.60547,28.228513 -22.66662,20.37627 -46.88086,43.71191 -46.88086,72.3125 0,28.60059 24.21424,51.93623 46.88086,72.3125 11.33329,10.18813 22.51569,19.66634 30.60547,28.22852 8.08978,8.56217 12.51367,16.11362 12.51367,21.17773 V 336.375 h 11.33789 v -25.67969 c 0,-10.52067 -6.82807,-19.6666 -15.61328,-28.96484 -8.78525,-9.29824 -20.09503,-18.84054 -31.26172,-28.87891 -22.33342,-20.07674 -43.125,-42.01553 -43.125,-63.875 0,-21.85947 20.79158,-43.79826 43.125,-63.875 11.16669,-10.03837 22.47647,-19.58066 31.26172,-28.878904 8.78521,-9.298242 15.61328,-18.446123 15.61328,-28.966797 V 41.578125 Z"
         transform="matrix(0.26458333,0,0,0.26458333,164.39746,-90.290959)"
         id="path2486"
         inkscape:connector-curvature="0"
         sodipodi:nodetypes="csccsccsccsscscsscccsssssssccscssscscc" />
    </g>
    <path
       style="fill:#4d4d4d;stroke:none;stroke-width:0.99999994px;stroke-linecap:butt;stroke-linejoin:miter;stroke-opacity:1;fill-opacity:1"
       d="m 188.99609,228.88281 c 0,43.00394 -95.87109,79.06995 -95.87109,107.49219 h 191.74414 c 0,-28.42224 -95.87305,-64.48825 -95.87305,-107.49219 z"
       transform="matrix(0.26458333,0,0,0.26458333,164.39761,-90.290959)"
       id="path2510"
       inkscape:connector-curvature="0"
       sodipodi:nodetypes="cccc" />
    <path
       style="color:#000000;font-style:normal;font-variant:normal;font-weight:normal;font-stretch:normal;font-size:medium;line-height:normal;font-family:sans-serif;font-variant-ligatures:normal;font-variant-position:normal;font-variant-caps:normal;font-variant-numeric:normal;font-variant-alternates:normal;font-feature-settings:normal;text-indent:0;text-align:start;text-decoration:none;text-decoration-line:none;text-decoration-style:solid;text-decoration-color:#000000;letter-spacing:normal;word-spacing:normal;text-transform:none;writing-mode:lr-tb;direction:ltr;text-orientation:mixed;dominant-baseline:auto;baseline-shift:baseline;text-anchor:start;white-space:normal;shape-padding:0;clip-rule:nonzero;display:inline;overflow:visible;visibility:visible;opacity:1;isolation:auto;mix-blend-mode:normal;color-interpolation:sRGB;color-interpolation-filters:linearRGB;solid-color:#000000;solid-opacity:1;vector-effect:none;fill:#4d4d4d;fill-opacity:1;fill-rule:nonzero;stroke:none;stroke-width:10;stroke-linecap:round;stroke-linejoin:miter;stroke-miterlimit:4;stroke-dasharray:none;stroke-dashoffset:0;stroke-opacity:1;color-rendering:auto;image-rendering:auto;shape-rendering:auto;text-rendering:auto;enable-background:accumulate"
       d="m 181.59961,-0.29101562 a 5.0005,5.0005 0 1 0 0,10.00000002 h 65.5957 a 5.0005,5.0005 0 1 0 0,-10.00000002 z"
       id="path2514"
       inkscape:connector-curvature="0" />
    <path
       style="color:#000000;font-style:normal;font-variant:normal;font-weight:normal;font-stretch:normal;font-size:medium;line-height:normal;font-family:sans-serif;font-variant-ligatures:normal;font-variant-position:normal;font-variant-caps:normal;font-variant-numeric:normal;font-variant-alternates:normal;font-feature-settings:normal;text-indent:0;text-align:start;text-decoration:none;text-decoration-line:none;text-decoration-style:solid;text-decoration-color:#000000;letter-spacing:normal;word-spacing:normal;text-transform:none;writing-mode:lr-tb;direction:ltr;text-orientation:mixed;dominant-baseline:auto;baseline-shift:baseline;text-anchor:start;white-space:normal;shape-padding:0;clip-rule:nonzero;display:inline;overflow:visible;visibility:visible;opacity:1;isolation:auto;mix-blend-mode:normal;color-interpolation:sRGB;color-interpolation-filters:linearRGB;solid-color:#000000;solid-opacity:1;vector-effect:none;fill:#4d4d4d;fill-opacity:1;fill-rule:nonzero;stroke:none;stroke-width:10;stroke-linecap:round;stroke-linejoin:miter;stroke-miterlimit:4;stroke-dasharray:none;stroke-dashoffset:0;stroke-opacity:1;color-rendering:auto;image-rendering:auto;shape-rendering:auto;text-rendering:auto;enable-background:accumulate"
       d="m 181.59961,-90.291016 a 5.0005,5.0005 0 1 0 0,10 h 65.5957 a 5.0005,5.0005 0 1 0 0,-10 z"
       id="path2516"
       inkscape:connector-curvature="0" />
  </g>
</svg>
