<?xml version="1.0" encoding="UTF-8" standalone="no"?>
<!-- Created with Inkscape (http://www.inkscape.org/) -->

<svg
   xmlns:dc="http://purl.org/dc/elements/1.1/"
   xmlns:cc="http://creativecommons.org/ns#"
   xmlns:rdf="http://www.w3.org/1999/02/22-rdf-syntax-ns#"
   xmlns:svg="http://www.w3.org/2000/svg"
   xmlns="http://www.w3.org/2000/svg"
   xmlns:xlink="http://www.w3.org/1999/xlink"
   xmlns:sodipodi="http://sodipodi.sourceforge.net/DTD/sodipodi-0.dtd"
   xmlns:inkscape="http://www.inkscape.org/namespaces/inkscape"
   width="30.384813mm"
   height="20.741394mm"
   viewBox="0 0 30.384812 20.741393"
   version="1.1"
   id="svg8"
   inkscape:version="0.92.1 unknown"
   sodipodi:docname="voided.svg"
   inkscape:export-filename="/1.works/www/pos_play/img/voided.png"
   inkscape:export-xdpi="249.81927"
   inkscape:export-ydpi="249.81927">
  <defs
     id="defs2">
    <pattern
       inkscape:collect="always"
       xlink:href="#Wavy"
       id="pattern2253"
       patternTransform="matrix(0.15747965,0,0,0.22232515,-22.787679,-1.5402584)" />
    <pattern
       inkscape:stockid="Wavy"
       id="Wavy"
       height="5.1805778"
       width="30.066020"
       patternUnits="userSpaceOnUse"
       inkscape:collect="always"
       inkscape:isstock="true">
      <path
         id="path2161"
         d="M 7.597,0.061 C 5.079,-0.187 2.656,0.302 -0.01,1.788 L -0.01,3.061 C 2.773,1.431 5.173,1.052 7.472,1.280 C 9.770,1.508 11.969,2.361 14.253,3.218 C 18.820,4.931 23.804,6.676 30.066,3.061 L 30.062,1.788 C 23.622,5.497 19.246,3.770 14.691,2.061 C 12.413,1.207 10.115,0.311 7.597,0.061 z "
         style="fill:black;stroke:none;" />
    </pattern>
  </defs>
  <sodipodi:namedview
     id="base"
     pagecolor="#ffffff"
     bordercolor="#666666"
     borderopacity="1.0"
     inkscape:pageopacity="0.0"
     inkscape:pageshadow="2"
     inkscape:zoom="5.6"
     inkscape:cx="80.66124"
     inkscape:cy="42.996625"
     inkscape:document-units="mm"
     inkscape:current-layer="layer1"
     showgrid="true"
     fit-margin-top="0"
     fit-margin-left="0"
     fit-margin-right="0"
     fit-margin-bottom="0"
     inkscape:window-width="1873"
     inkscape:window-height="1056"
     inkscape:window-x="47"
     inkscape:window-y="24"
     inkscape:window-maximized="1">
    <inkscape:grid
       type="xygrid"
       id="grid10"
       originx="-129.0054"
       originy="-272.73343" />
  </sodipodi:namedview>
  <metadata
     id="metadata5">
    <rdf:RDF>
      <cc:Work
         rdf:about="">
        <dc:format>image/svg+xml</dc:format>
        <dc:type
           rdf:resource="http://purl.org/dc/dcmitype/StillImage" />
        <dc:title></dc:title>
      </cc:Work>
    </rdf:RDF>
  </metadata>
  <g
     inkscape:label="Layer 1"
     inkscape:groupmode="layer"
     id="layer1"
     transform="translate(-129.00543,-3.5251354)">
    <path
       style="opacity:0.8;fill:url(#pattern2253);fill-opacity:1;stroke:#808080;stroke-width:0.50000001;stroke-linecap:round;stroke-linejoin:round;stroke-miterlimit:4;stroke-dasharray:none;stroke-dashoffset:0;stroke-opacity:0.99215686"
       d="M 18.894531 49.646484 L 14.308594 52.292969 L 17.166016 68.052734 L 4.9355469 57.705078 L 0.34960938 60.351562 L 17.115234 74.259766 L 22.554688 71.119141 L 18.894531 49.646484 z "
       id="path2294"
       transform="matrix(0.26458333,0,0,0.26458333,129.00543,3.5251354)" />
    <path
       style="opacity:0.8;fill:url(#pattern2253);fill-opacity:1;stroke:#808080;stroke-width:0.50000001;stroke-linecap:round;stroke-linejoin:round;stroke-miterlimit:4;stroke-dasharray:none;stroke-dashoffset:0;stroke-opacity:0.99215686"
       d="M 35.267578 41.578125 C 34.286094 41.540494 33.28344 41.665998 32.259766 41.955078 C 31.236092 42.244158 30.191398 42.696815 29.125 43.3125 C 27.707086 44.131133 26.558019 45.063491 25.677734 46.111328 C 24.79745 47.159165 24.185947 48.32248 23.84375 49.599609 C 23.503211 50.870515 23.456033 52.184487 23.703125 53.542969 C 23.950217 54.90145 24.491578 56.304441 25.326172 57.75 C 26.160765 59.195558 27.103523 60.364981 28.15625 61.257812 C 29.208977 62.150644 30.371672 62.766884 31.642578 63.107422 C 32.917423 63.445685 34.227877 63.494165 35.574219 63.253906 C 36.92056 63.013647 38.302789 62.484649 39.720703 61.666016 C 41.138617 60.847382 42.286781 59.915604 43.166016 58.871094 C 44.04525 57.826584 44.655555 56.669343 44.996094 55.398438 C 45.340582 54.125251 45.389681 52.808595 45.144531 51.449219 C 44.899382 50.089842 44.359984 48.687746 43.525391 47.242188 C 42.688516 45.792678 41.743074 44.619871 40.689453 43.724609 C 39.635832 42.829347 38.474032 42.211631 37.203125 41.871094 C 36.567672 41.700825 35.921901 41.603212 35.267578 41.578125 z M 33.263672 45.914062 C 34.001161 45.877969 34.699732 46.028754 35.357422 46.365234 C 36.010637 46.693763 36.627439 47.15897 37.207031 47.761719 C 37.786622 48.364466 38.325157 49.096014 38.822266 49.957031 C 39.319373 50.818047 39.683817 51.651764 39.916016 52.455078 C 40.143568 53.250545 40.238616 54.01609 40.201172 54.753906 C 40.159166 55.483821 39.937112 56.15866 39.537109 56.779297 C 39.137107 57.399934 38.562928 57.928068 37.8125 58.361328 C 37.08182 58.783187 36.365338 59.019811 35.662109 59.070312 C 34.958881 59.120814 34.268908 58.985192 33.59375 58.664062 C 32.922543 58.340654 32.291333 57.875693 31.699219 57.269531 C 31.107104 56.663369 30.554085 55.916006 30.041016 55.027344 C 29.370604 53.866157 28.937172 52.768696 28.740234 51.734375 C 28.543298 50.700056 28.628998 49.734434 28.996094 48.837891 C 29.181311 48.38339 29.443656 47.971365 29.783203 47.601562 C 30.12275 47.23176 30.539501 46.90418 31.033203 46.619141 C 31.783631 46.185881 32.526184 45.950159 33.263672 45.914062 z "
       id="path2290"
       transform="matrix(0.26458333,0,0,0.26458333,129.00543,3.5251354)" />
    <path
       style="opacity:0.8;fill:url(#pattern2253);fill-opacity:1;stroke:#808080;stroke-width:0.50000001;stroke-linecap:round;stroke-linejoin:round;stroke-miterlimit:4;stroke-dasharray:none;stroke-dashoffset:0;stroke-opacity:0.99215686"
       d="M 46.40625 33.761719 L 41.845703 36.394531 L 52.058594 54.085938 L 56.621094 51.451172 L 46.40625 33.761719 z "
       id="path2288"
       transform="matrix(0.26458333,0,0,0.26458333,129.00543,3.5251354)" />
    <path
       style="opacity:0.8;fill:url(#pattern2253);fill-opacity:1;stroke:#808080;stroke-width:0.50000001;stroke-linecap:round;stroke-linejoin:round;stroke-miterlimit:4;stroke-dasharray:none;stroke-dashoffset:0;stroke-opacity:0.99215686"
       d="M 63.988281 25.220703 C 63.147776 25.24255 62.272676 25.407076 61.363281 25.710938 C 60.449325 26.006899 59.573975 26.359642 58.736328 26.769531 C 57.89412 27.171522 56.885972 27.711091 55.708984 28.390625 L 50.896484 31.167969 L 61.111328 48.859375 L 65.921875 46.082031 C 68.576021 44.54966 70.456291 43.209803 71.564453 42.064453 C 72.067802 41.531604 72.508461 40.962424 72.884766 40.355469 C 73.268947 39.743965 73.57668 39.054898 73.808594 38.289062 C 74.048408 37.518669 74.183673 36.730621 74.212891 35.923828 C 74.237548 35.109138 74.120969 34.222743 73.863281 33.265625 C 73.605595 32.308509 73.197021 31.348471 72.640625 30.384766 C 71.883561 29.073493 70.997697 28.010188 69.982422 27.195312 C 68.967147 26.380437 67.822462 25.813992 66.548828 25.496094 C 65.685758 25.278189 64.832104 25.186411 63.988281 25.220703 z M 62.970703 29.816406 C 63.3702 29.81286 63.758749 29.85487 64.136719 29.939453 C 64.892657 30.108619 65.58719 30.455853 66.220703 30.982422 C 66.854216 31.508991 67.42671 32.214895 67.9375 33.099609 C 68.45057 33.988272 68.777991 34.841152 68.917969 35.658203 C 69.057946 36.475255 69.010479 37.256478 68.777344 38.001953 C 68.548157 38.745148 68.145244 39.435408 67.568359 40.074219 C 66.991474 40.71303 66.240618 41.300391 65.316406 41.833984 L 63.681641 42.777344 L 57.449219 31.982422 L 59.085938 31.039062 C 59.782058 30.637157 60.454213 30.334717 61.101562 30.130859 C 61.748912 29.927002 62.371457 29.821726 62.970703 29.816406 z "
       id="path2284"
       transform="matrix(0.26458333,0,0,0.26458333,129.00543,3.5251354)" />
    <path
       style="opacity:0.8;fill:url(#pattern2253);fill-opacity:1;stroke:#808080;stroke-width:0.50000001;stroke-linecap:round;stroke-linejoin:round;stroke-miterlimit:4;stroke-dasharray:none;stroke-dashoffset:0;stroke-opacity:0.99215686"
       d="M 83.351562 12.431641 L 71.041016 19.539062 L 81.253906 37.228516 L 93.826172 29.970703 L 91.833984 26.523438 L 83.824219 31.148438 L 81.486328 27.095703 L 88.773438 22.888672 L 86.78125 19.439453 L 79.494141 23.646484 L 77.59375 20.353516 L 85.341797 15.878906 L 83.351562 12.431641 z "
       id="path2282"
       transform="matrix(0.26458333,0,0,0.26458333,129.00543,3.5251354)" />
    <path
       style="opacity:0.8;fill:url(#pattern2253);fill-opacity:1;stroke:#808080;stroke-width:0.50000001;stroke-linecap:round;stroke-linejoin:round;stroke-miterlimit:4;stroke-dasharray:none;stroke-dashoffset:0;stroke-opacity:0.99215686"
       d="M 100.7207 4.015625 C 99.880201 4.0374715 99.005098 4.2000454 98.095703 4.5039062 C 97.181747 4.7998679 96.306397 5.1526104 95.46875 5.5625 C 94.626542 5.9644903 93.61644 6.5040598 92.439453 7.1835938 L 87.628906 9.9609375 L 97.841797 27.652344 L 102.65234 24.875 C 105.30649 23.342628 107.1887 22.002771 108.29688 20.857422 C 108.80022 20.324573 109.23893 19.755393 109.61523 19.148438 C 109.99944 18.53692 110.3091 17.847866 110.54102 17.082031 C 110.78083 16.311638 110.91416 15.523577 110.94336 14.716797 C 110.96802 13.902107 110.85144 13.015712 110.59375 12.058594 C 110.33606 11.101478 109.92944 10.14144 109.37305 9.1777344 C 108.61598 7.8664623 107.73012 6.80462 106.71484 5.9902344 C 105.69957 5.1758488 104.55488 4.6089199 103.28125 4.2910156 C 102.41818 4.0731112 101.56455 3.9813208 100.7207 4.015625 z M 99.703125 8.609375 C 100.10262 8.6058284 100.49117 8.6478383 100.86914 8.7324219 C 101.62508 8.9015878 102.31961 9.2488216 102.95312 9.7753906 C 103.58664 10.30196 104.15913 11.007864 104.66992 11.892578 C 105.18299 12.781241 105.50895 13.633632 105.64844 14.451172 C 105.78793 15.268712 105.74095 16.051399 105.50781 16.796875 C 105.27863 17.54007 104.87522 18.230818 104.29883 18.869141 C 103.72243 19.507463 102.97304 20.09336 102.04883 20.626953 L 100.41406 21.570312 L 94.181641 10.775391 L 95.816406 9.8320312 C 96.512527 9.4301257 97.184193 9.1276858 97.832031 8.9238281 C 98.479869 8.7199704 99.103879 8.6146949 99.703125 8.609375 z "
       id="path2278"
       transform="matrix(0.26458333,0,0,0.26458333,129.00543,3.5251354)" />
    <g
       aria-label="VOIDED"
       transform="rotate(-30.000001)"
       style="font-style:normal;font-weight:normal;font-size:7.41374779px;line-height:125%;font-family:Sans;letter-spacing:0px;word-spacing:0px;fill:none;fill-opacity:1;stroke:#808080;stroke-width:0.13229167;stroke-linecap:butt;stroke-linejoin:miter;stroke-opacity:1;stroke-miterlimit:4;stroke-dasharray:none"
       id="text2258" />
  </g>
</svg>
